<svg width="25" height="25" viewBox="0 0 25 25" fill="none" xmlns="http://www.w3.org/2000/svg">
<ellipse cx="9.37496" cy="15.2084" rx="6.45833" ry="6.875" fill="white"/>
<path d="M12.5558 9.68115L21.025 1.21189L23.7868 3.97361L15.3175 12.4429L12.5558 9.68115Z" fill="#9CCEFD"/>
<path d="M24.6338 10.3922V2.31934C24.6338 1.24067 23.7594 0.366211 22.6807 0.366211H14.6078C13.5291 0.366211 12.6547 1.24067 12.6547 2.31934C12.6547 3.398 13.5291 4.27246 14.6078 4.27246H20.7276V10.3922C20.7276 11.4709 21.602 12.3454 22.6807 12.3454C23.7594 12.3454 24.6338 11.4709 24.6338 10.3922Z" fill="#B0D8FD"/>
<path d="M9.64355 6.0791C4.51982 6.0791 0.366211 10.2327 0.366211 15.3564C0.366211 20.4802 4.51982 24.6338 9.64355 24.6338C14.7673 24.6338 18.9209 20.4802 18.9209 15.3564C18.9209 10.2327 14.7673 6.0791 9.64355 6.0791ZM9.64355 20.7275C6.68193 20.7275 4.27246 18.3181 4.27246 15.3564C4.27246 12.3948 6.68193 9.98535 9.64355 9.98535C12.6052 9.98535 15.0146 12.3948 15.0146 15.3564C15.0146 18.3181 12.6052 20.7275 9.64355 20.7275Z" fill="#B0D8FD"/>
<path d="M7.69043 22.6807C7.69043 21.602 8.56489 20.7275 9.64355 20.7275C6.68193 20.7275 4.27246 18.3181 4.27246 15.3564C4.27246 12.3948 6.68193 9.98535 9.64355 9.98535C8.56489 9.98535 7.69043 9.11089 7.69043 8.03223C7.69043 6.95356 8.56484 6.0791 9.64355 6.0791C4.51982 6.0791 0.366211 10.2327 0.366211 15.3564C0.366211 20.4802 4.51982 24.6338 9.64355 24.6338C8.56484 24.6338 7.69043 23.7593 7.69043 22.6807Z" fill="#9CCEFD"/>
<path d="M20.7275 0.938281C20.9977 0.668115 21.3173 0.477832 21.6571 0.366211H14.6077C13.529 0.366211 12.6545 1.24067 12.6545 2.31934C12.6545 3.398 13.529 4.27246 14.6077 4.27246H20.7274C19.8068 3.35176 19.8068 1.85898 20.7275 0.938281Z" fill="#9CCEFD"/>
<path d="M6.4335 16.633C7.08766 16.633 7.61797 16.2107 7.61797 15.6897C7.61797 15.1688 7.08766 14.7465 6.4335 14.7465C5.77933 14.7465 5.24902 15.1688 5.24902 15.6897C5.24902 16.2107 5.77933 16.633 6.4335 16.633Z" fill="#FDA0C1"/>
<path d="M12.8535 16.633C13.5077 16.633 14.038 16.2107 14.038 15.6897C14.038 15.1688 13.5077 14.7465 12.8535 14.7465C12.1994 14.7465 11.6691 15.1688 11.6691 15.6897C11.6691 16.2107 12.1994 16.633 12.8535 16.633Z" fill="#FDA0C1"/>
<path d="M10.5986 14.965C10.5986 14.3748 10.171 14.3193 9.64358 14.3193C9.11614 14.3193 8.6886 14.3748 8.6886 14.965C8.6886 15.5552 9.11614 16.0336 9.64358 16.0336C10.171 16.0336 10.5986 15.5552 10.5986 14.965Z" fill="#6E6E6E"/>
<path d="M6.63147 14.9298C6.42917 14.9298 6.26526 14.7659 6.26526 14.5636V14.08C6.26526 13.8777 6.42917 13.7137 6.63147 13.7137C6.83376 13.7137 6.99768 13.8777 6.99768 14.08V14.5636C6.99768 14.7658 6.83372 14.9298 6.63147 14.9298Z" fill="black"/>
<path d="M9.64358 16.3998C8.91506 16.3998 8.32239 15.7561 8.32239 14.9649C8.32239 13.9531 9.24822 13.9531 9.64358 13.9531C10.0389 13.9531 10.9648 13.9531 10.9648 14.9649C10.9648 15.7562 10.3721 16.3998 9.64358 16.3998ZM9.64358 14.6856C9.05481 14.6856 9.05481 14.7674 9.05481 14.965C9.05481 15.3523 9.31892 15.6674 9.64358 15.6674C9.96824 15.6674 10.2323 15.3523 10.2323 14.965C10.2323 14.7674 10.2323 14.6856 9.64358 14.6856Z" fill="black"/>
<path d="M12.6558 14.9298C12.4535 14.9298 12.2896 14.7659 12.2896 14.5636V14.08C12.2896 13.8777 12.4535 13.7137 12.6558 13.7137C12.8581 13.7137 13.022 13.8777 13.022 14.08V14.5636C13.022 14.7658 12.858 14.9298 12.6558 14.9298Z" fill="black"/>
<path d="M24.6338 4.63867C24.8361 4.63867 25 4.47476 25 4.27246V2.31934C25 1.04048 23.9595 0 22.6807 0H14.6078C13.3289 0 12.2884 1.04048 12.2884 2.31934C12.2884 3.59819 13.3289 4.63867 14.6078 4.63867H17.0813L14.6206 7.09932C13.1667 6.21973 11.4633 5.71289 9.64355 5.71289C4.32607 5.71289 0 10.039 0 15.3564C0 20.6739 4.32607 25 9.64355 25C14.961 25 19.2871 20.6739 19.2871 15.3564C19.2871 13.5367 18.7803 11.8333 17.9007 10.3794L20.3613 7.91875V10.3922C20.3613 11.6711 21.4018 12.7116 22.6807 12.7116C23.9595 12.7116 25 11.6711 25 10.3922V5.7373C25 5.53501 24.8361 5.37109 24.6338 5.37109C24.4315 5.37109 24.2676 5.53501 24.2676 5.7373V10.3922C24.2676 11.2673 23.5557 11.9791 22.6807 11.9791C21.8056 11.9791 21.0938 11.2673 21.0938 10.3922V4.27246C21.0938 4.07017 20.9298 3.90625 20.7275 3.90625H14.6078C13.7327 3.90625 13.0208 3.19438 13.0208 2.31934C13.0208 1.44429 13.7327 0.732422 14.6078 0.732422H22.6807C23.5557 0.732422 24.2676 1.44429 24.2676 2.31934V4.27246C24.2676 4.47476 24.4315 4.63867 24.6338 4.63867ZM9.64355 24.2676C4.72993 24.2676 0.732422 20.2701 0.732422 15.3564C0.732422 10.4428 4.72993 6.44531 9.64355 6.44531C14.5572 6.44531 18.5547 10.4428 18.5547 15.3564C18.5547 20.2701 14.5572 24.2676 9.64355 24.2676ZM20.3613 6.88286L17.4891 9.75508C16.8694 8.88965 16.1104 8.13057 15.2449 7.51089L18.1171 4.63867H20.3613V6.88286Z" fill="black"/>
<path d="M9.64355 9.61914C6.47998 9.61914 3.90625 12.1929 3.90625 15.3564C3.90625 16.6183 4.30972 17.8163 5.073 18.8209C5.19541 18.982 5.42505 19.0133 5.58613 18.891C5.74717 18.7687 5.77852 18.5389 5.6562 18.3779C4.99053 17.5017 4.63867 16.4569 4.63867 15.3564C4.63867 12.5967 6.88384 10.3516 9.64355 10.3516C12.4033 10.3516 14.6484 12.5967 14.6484 15.3564C14.6484 18.1162 12.4033 20.3613 9.64355 20.3613C8.54307 20.3613 7.49819 20.0095 6.62207 19.3438C6.46094 19.2214 6.2313 19.2528 6.10894 19.4139C5.98657 19.5749 6.01797 19.8046 6.179 19.927C7.18364 20.6903 8.38164 21.0938 9.64355 21.0938C12.8071 21.0938 15.3809 18.52 15.3809 15.3564C15.3809 12.1929 12.8071 9.61914 9.64355 9.61914Z" fill="black"/>
</svg>
