<svg width="25" height="25" viewBox="0 0 25 25" fill="none" xmlns="http://www.w3.org/2000/svg">
<ellipse cx="15.0424" cy="9.53388" rx="6.5678" ry="6.99152" fill="white"/>
<path d="M11.0594 21.2996L8.76066 19.0009L12.4404 15.3211L9.67833 12.559L5.99855 16.2387L3.69982 13.94C2.93707 13.1773 1.7004 13.1773 0.937659 13.94C0.174915 14.7028 0.174915 15.9394 0.937659 16.7022L3.23639 19.0009L0.937659 21.2996C0.174915 22.0624 0.174915 23.2991 0.937659 24.0617C1.7004 24.8245 2.93707 24.8245 3.69982 24.0617L5.99855 21.763L8.29728 24.0617C9.06002 24.8245 10.2967 24.8245 11.0594 24.0617C11.8221 23.299 11.8221 22.0624 11.0594 21.2996Z" fill="#FDA0C1"/>
<path d="M12.4406 15.3211L9.67845 12.559L5.99867 16.2387L3.69994 13.94C2.93719 13.1773 1.70052 13.1773 0.937781 13.94C0.175037 14.7028 0.175037 15.9394 0.937781 16.7022L3.23651 19.0009L0.937781 21.2996C0.175037 22.0624 0.175037 23.2991 0.937781 24.0618C1.70052 24.8245 2.93719 24.8245 3.69994 24.0618L5.99867 21.763C5.23592 21.0003 5.23592 19.7637 5.99867 19.0009C6.76141 18.2381 7.99808 18.2381 8.76083 19.0009L12.4406 15.3211Z" fill="#FC90B4"/>
<path d="M24.6333 9.64355C24.6333 4.51982 20.4797 0.366211 15.356 0.366211C10.2322 0.366211 6.07861 4.51982 6.07861 9.64355C6.07861 14.7673 10.2322 18.9209 15.356 18.9209C20.4797 18.9209 24.6333 14.7673 24.6333 9.64355ZM20.727 9.64355C20.727 12.6052 18.3176 15.0146 15.356 15.0146C12.3943 15.0146 9.98486 12.6052 9.98486 9.64355C9.98486 6.68193 12.3943 4.27246 15.356 4.27246C18.3176 4.27246 20.727 6.68193 20.727 9.64355Z" fill="#FDB3CD"/>
<path d="M13.4028 2.31934C13.4028 3.398 14.2773 4.27246 15.356 4.27246C12.3943 4.27246 9.98486 6.68193 9.98486 9.64355C9.98486 12.6052 12.3943 15.0146 15.356 15.0146C14.2773 15.0146 13.4028 15.8891 13.4028 16.9678C13.4028 18.0464 14.2772 18.9209 15.356 18.9209C10.2322 18.9209 6.07861 14.7673 6.07861 9.64355C6.07861 4.51982 10.2322 0.366211 15.356 0.366211C14.2772 0.366211 13.4028 1.24067 13.4028 2.31934Z" fill="#FDA0C1"/>
<path d="M12.1458 10.8113C12.7999 10.8113 13.3303 10.389 13.3303 9.86807C13.3303 9.34712 12.7999 8.9248 12.1458 8.9248C11.4916 8.9248 10.9613 9.34712 10.9613 9.86807C10.9613 10.389 11.4916 10.8113 12.1458 10.8113Z" fill="#FDA0C1"/>
<path d="M18.5658 10.8113C19.22 10.8113 19.7503 10.389 19.7503 9.86807C19.7503 9.34712 19.22 8.9248 18.5658 8.9248C17.9117 8.9248 17.3813 9.34712 17.3813 9.86807C17.3813 10.389 17.9117 10.8113 18.5658 10.8113Z" fill="#FDA0C1"/>
<path d="M12.8361 9.32622C12.6338 9.32622 12.4698 9.16231 12.4698 8.96001V8.47583C12.4698 8.27354 12.6338 8.10962 12.8361 8.10962C13.0383 8.10962 13.2023 8.27354 13.2023 8.47583V8.96001C13.2023 9.16231 13.0383 9.32622 12.8361 9.32622Z" fill="black"/>
<path d="M17.8756 9.32622C17.6734 9.32622 17.5094 9.16231 17.5094 8.96001V8.47583C17.5094 8.27354 17.6734 8.10962 17.8756 8.10962C18.0779 8.10962 18.2418 8.27354 18.2418 8.47583V8.96001C18.2418 9.16231 18.0779 9.32622 17.8756 9.32622Z" fill="black"/>
<path d="M15.3559 9.61444C14.9954 9.61444 14.6526 9.45833 14.4154 9.18617C14.2826 9.03368 14.2984 8.80238 14.4509 8.66947C14.6034 8.53661 14.8348 8.55248 14.9676 8.70497C15.0657 8.81752 15.2072 8.88202 15.3559 8.88202C15.5046 8.88202 15.6461 8.81752 15.7441 8.70497C15.877 8.55248 16.1083 8.53661 16.2608 8.66947C16.4133 8.80238 16.4292 9.03368 16.2963 9.18617C16.0591 9.45833 15.7163 9.61444 15.3559 9.61444Z" fill="black"/>
<path d="M22.6933 3.38384C22.562 3.23013 22.3308 3.21187 22.177 3.34321C22.0233 3.47456 22.0051 3.70571 22.1364 3.85952C23.5113 5.46929 24.2684 7.52344 24.2684 9.64355C24.2684 14.5572 20.2709 18.5547 15.3573 18.5547C10.4437 18.5547 6.44618 14.5572 6.44618 9.64355C6.44618 4.72993 10.4437 0.732422 15.3573 0.732422C17.4774 0.732422 19.5315 1.4896 21.1413 2.8644C21.2951 2.99575 21.5263 2.97754 21.6576 2.82378C21.789 2.66997 21.7707 2.43882 21.6169 2.30747C19.8747 0.819482 17.6516 0 15.3573 0C10.0398 0 5.71376 4.32607 5.71376 9.64355C5.71376 11.4633 6.22059 13.1667 7.10023 14.6206L6.00004 15.7208L3.96024 13.6811C3.0559 12.7768 1.58456 12.7768 0.680212 13.6811C-0.224133 14.5854 -0.224133 16.0568 0.680212 16.9612L2.71996 19.0009L2.1514 19.5695C2.00839 19.7125 2.00839 19.9443 2.1514 20.0874C2.22289 20.1588 2.31664 20.1946 2.41034 20.1946C2.50404 20.1946 2.59779 20.1588 2.66928 20.0873L3.49677 19.2599C3.63978 19.1168 3.63978 18.885 3.49677 18.7419L1.19803 16.4433C0.579285 15.8245 0.579285 14.8178 1.19803 14.199C1.81674 13.5802 2.82352 13.5803 3.44227 14.199L5.741 16.4978C5.88402 16.6407 6.11591 16.6407 6.25888 16.4978L7.51166 15.245C8.13134 16.1104 8.89042 16.8695 9.75585 17.4892L8.50307 18.7419C8.36005 18.885 8.36005 19.1168 8.50307 19.2599L10.8018 21.5586C11.4205 22.1773 11.4205 23.1841 10.8018 23.8028C10.5021 24.1025 10.1036 24.2676 9.67968 24.2676C9.2558 24.2676 8.85731 24.1025 8.55756 23.8028L6.25883 21.5041C6.19017 21.4354 6.09701 21.3968 5.99989 21.3968C5.90277 21.3968 5.80961 21.4354 5.74095 21.5041L3.44232 23.8027C2.82357 24.4215 1.81678 24.4215 1.19808 23.8027C0.579334 23.184 0.579334 22.1772 1.19808 21.5585L1.63353 21.1231C1.77655 20.98 1.77655 20.7482 1.63353 20.6052C1.49052 20.4622 1.25863 20.4622 1.11566 20.6052L0.680212 21.0406C-0.224133 21.945 -0.224133 23.4164 0.680212 24.3207C1.58451 25.225 3.05595 25.225 3.96024 24.3207L6.00004 22.2809L8.03978 24.3207C8.47787 24.7588 9.06029 25 9.67977 25C10.2993 25 10.8817 24.7587 11.3198 24.3207C12.2241 23.4164 12.2241 21.945 11.3198 21.0406L9.28002 19.0009L10.3803 17.9007C11.8341 18.7803 13.5376 19.2871 15.3573 19.2871C20.6748 19.2871 25.0009 14.961 25.0009 9.64355C25.0009 7.34922 24.1814 5.12607 22.6933 3.38384Z" fill="black"/>
<path d="M9.61853 9.64355C9.61853 12.8071 12.1923 15.3809 15.3558 15.3809C18.5194 15.3809 21.0931 12.8071 21.0931 9.64355C21.0931 6.47998 18.5194 3.90625 15.3558 3.90625C12.1923 3.90625 9.61853 6.47998 9.61853 9.64355ZM20.3607 9.64355C20.3607 12.4033 18.1156 14.6484 15.3558 14.6484C12.5961 14.6484 10.351 12.4033 10.351 9.64355C10.351 6.88384 12.5961 4.63867 15.3558 4.63867C18.1156 4.63867 20.3607 6.88384 20.3607 9.64355Z" fill="black"/>
</svg>
