<svg width="100" height="30" viewBox="0 0 100 30" fill="none" xmlns="http://www.w3.org/2000/svg">
<g clip-path="url(#clip0)">
<path d="M52.0058 29.9998C52.0058 29.9998 52.002 29.9998 51.9935 29.9998C51.4924 29.9998 35.644 29.9191 37.0941 20.9424C37.1036 20.88 37.114 20.8175 37.1254 20.7541C37.1472 20.6349 37.1728 20.5139 37.2013 20.3909C37.2554 20.1583 37.3105 19.9268 37.3664 19.6942C37.4025 19.5462 37.4386 19.3983 37.4756 19.2513C37.5097 19.1148 37.5439 18.9784 37.579 18.841C37.6122 18.7112 37.6454 18.5815 37.6796 18.4528C37.6806 18.4479 37.6825 18.4441 37.6834 18.4393C37.747 18.1972 37.8125 17.955 37.8808 17.7138C37.8893 17.6812 37.8979 17.6485 37.9074 17.6158C38.4018 15.8487 38.9873 14.1076 39.7048 12.4222C40.4877 10.5859 41.4737 8.93512 42.6192 7.30833C44.2838 4.9455 46.251 2.35974 48.7536 0.855946C49.7197 0.274607 50.868 -0.0905317 52.0001 0.01901C53.1323 -0.0905317 54.2796 0.274607 55.2457 0.855946C57.7483 2.35974 59.7156 4.9455 61.3801 7.30833C62.5256 8.93512 63.5116 10.5859 64.2936 12.4222C65.1818 14.5044 65.8661 16.6722 66.4269 18.8698C66.4858 19.0975 66.5427 19.3262 66.5987 19.5549C66.6006 19.5597 66.6015 19.5645 66.6025 19.5693C66.6348 19.7019 66.667 19.8345 66.6983 19.9671C66.7126 20.0277 66.7278 20.0872 66.741 20.1478C66.761 20.2285 66.779 20.3102 66.798 20.3909C68.9978 29.9162 52.5173 29.9998 52.0058 29.9998Z" fill="url(#paint0_radial)"/>
<circle cx="56.0001" cy="8.00012" r="2" fill="#D7D9FF"/>
<path d="M52.0055 29.9998C52.0055 29.9998 52.0018 29.9998 51.9932 29.9998C51.4921 29.9998 35.6437 29.9191 37.0938 20.9424C37.1033 20.88 37.1137 20.8175 37.1251 20.7541C37.1469 20.6349 37.1726 20.5139 37.201 20.3909C37.2551 20.1583 37.3102 19.9268 37.3662 19.6942C37.4022 19.5462 37.4383 19.3983 37.4753 19.2512C37.5095 19.1148 37.5436 18.9784 37.5787 18.8409C37.612 18.7112 37.6452 18.5815 37.6793 18.4527C37.6803 18.4479 37.6822 18.4441 37.6831 18.4393C37.7467 18.1971 37.8122 17.955 37.8805 17.7138C37.9156 17.6869 37.9517 17.66 37.9868 17.6331C39.6571 16.3686 41.6073 14.6486 42.1235 13.1842C43.7017 8.71027 46.8382 11.2614 48.1127 12.5644C48.5179 12.9785 49.15 13.0612 49.6406 12.7566C50.3021 12.3453 51.2217 11.5516 52.1299 10.0363C52.8075 8.90629 54.2148 8.45947 55.3907 9.03313C57.2915 9.96135 60.4954 12.3367 65.7538 18.0847C65.9968 18.3509 66.2217 18.6123 66.4267 18.8698C66.4855 19.0975 66.5424 19.3262 66.5984 19.5549C66.6003 19.5597 66.6013 19.5645 66.6022 19.5693C66.6345 19.7019 66.6668 19.8345 66.6981 19.9671C66.7123 20.0276 66.7275 20.0872 66.7408 20.1478C66.7607 20.2285 66.7787 20.3101 66.7977 20.3909C68.9975 29.9162 52.5171 29.9998 52.0055 29.9998Z" fill="#8589EB"/>
<path opacity="0.15" d="M52.0055 30.0001C52.0055 30.0001 52.0018 30.0001 51.9932 30.0001C51.4921 30.0001 35.6437 29.9194 37.0938 20.9427C37.1033 20.8802 37.1137 20.8178 37.1251 20.7544C37.1469 20.6352 37.1726 20.5141 37.201 20.3912C37.2551 20.1586 37.3102 19.927 37.3662 19.6945C37.4022 19.5465 37.4383 19.3986 37.4753 19.2515C38.2374 19.093 39.0715 19.1987 39.7007 20.0183C39.7634 20.099 39.826 20.1788 39.8905 20.2566C40.2217 20.6564 40.5842 21.0109 40.9885 21.2838C41.277 21.4789 41.5864 21.6326 41.9214 21.7316C42.5193 21.9094 43.1988 21.9132 43.9807 21.6711C44.9592 21.3693 46.0989 20.6823 47.4446 19.4668C51.4798 15.8221 57.1511 18.4723 59.0045 20.9023C60.1661 22.4244 62.5898 22.0977 64.1775 21.6336C64.4613 21.5509 64.7412 21.4577 65.0136 21.3492C65.2736 21.2454 65.5279 21.1291 65.7728 20.9946C65.8259 20.9658 65.8791 20.936 65.9313 20.9052C66.0755 20.8207 66.216 20.7303 66.3536 20.6323C66.4798 20.542 66.607 20.4421 66.6791 20.3037C66.7057 20.2547 66.7237 20.2019 66.7408 20.148C66.7607 20.2288 66.7787 20.3104 66.7977 20.3912C68.9975 29.9165 52.5171 30.0001 52.0055 30.0001Z" fill="white"/>
<path opacity="0.15" d="M52.0055 30.0001C52.0055 30.0001 52.0018 30.0001 51.9932 30.0001C51.4921 30.0001 35.6437 29.9194 37.0938 20.9428C37.1033 20.8803 37.1137 20.8178 37.1251 20.7544C37.1469 20.6353 37.1726 20.5142 37.201 20.3912C37.2551 20.1587 37.3102 19.9271 37.3662 19.6946C37.4022 19.5466 37.4383 19.3986 37.4753 19.2516C37.5095 19.1151 37.5436 18.9787 37.5787 18.8413C37.612 18.7116 37.6452 18.5818 37.6793 18.4531C37.6803 18.4483 37.6822 18.4444 37.6831 18.4396C37.7467 18.1975 37.8122 17.9553 37.8805 17.7142C37.8891 17.6815 37.8976 17.6488 37.9071 17.6161C37.9337 17.6219 37.9602 17.6277 37.9868 17.6334C38.3683 17.7228 38.7479 17.8967 39.1142 18.184C39.7007 18.6443 40.253 19.3948 40.72 20.5507C40.7987 20.7448 40.8756 20.9514 40.9487 21.1695C40.962 21.208 40.9743 21.2454 40.9885 21.2839C41.4051 22.4744 42.0989 23.7226 43.2775 24.2367C43.3933 24.2876 43.5148 24.3309 43.6401 24.3664C45.1708 24.7998 46.9103 23.9542 48.0985 23.025C48.4809 22.7262 48.8349 22.3889 49.2363 22.1179C51.9173 20.3066 55.2388 23.0413 56.8502 25.039C56.9252 25.1323 56.9992 25.2264 57.0723 25.3206C57.3475 25.6771 57.6303 25.9586 57.9188 26.171C60.4593 28.0534 63.4031 24.6672 65.3391 21.6826C65.4909 21.4501 65.6352 21.2195 65.7728 20.9946C65.9863 20.6478 66.1828 20.3134 66.3612 20.0001C66.4371 19.8666 66.5092 19.7368 66.5785 19.6129C66.5861 19.5985 66.5946 19.5841 66.6022 19.5696C66.6345 19.7022 66.6668 19.8349 66.6981 19.9675C66.7123 20.028 66.7275 20.0876 66.7408 20.1481C66.7607 20.2288 66.7787 20.3105 66.7977 20.3912C68.9975 29.9165 52.5171 30.0001 52.0055 30.0001Z" fill="white"/>
<path opacity="0.15" d="M52.0055 30C52.0055 30 52.0018 30 51.9932 30C51.4921 30 35.6437 29.9193 37.0938 20.9427C37.797 20.5257 38.8447 20.075 39.8905 20.2566C40.1695 20.3056 40.4485 20.3988 40.72 20.5507C41.1451 20.787 41.5541 21.1647 41.9214 21.7316C42.1302 22.0535 42.3257 22.4369 42.5031 22.8895C42.6948 23.3814 42.952 23.8465 43.2775 24.2366C43.7947 24.8574 44.4847 25.2878 45.3606 25.3368C46.7566 25.4147 48.0311 24.6719 49.1386 23.908C51.6573 22.1717 53.803 25.3176 56.3586 25.9643C56.9015 26.1017 57.4215 26.1661 57.9188 26.1709C60.7677 26.2007 62.8593 24.2635 64.0693 22.7232C64.4945 22.1822 64.8114 21.6903 65.0136 21.3492C65.1891 21.0532 65.2793 20.8716 65.2793 20.8716C65.2793 20.8716 65.6959 20.1634 66.3612 20.0001C66.383 19.9933 66.4058 19.9885 66.4286 19.9847C66.5149 19.9684 66.6051 19.9626 66.6981 19.9674C66.7123 20.0279 66.7275 20.0875 66.7408 20.148C66.7607 20.2288 66.7787 20.3104 66.7977 20.3912C68.9975 29.9165 52.5171 30 52.0055 30Z" fill="white"/>
<path opacity="0.15" d="M52.0055 30.0001C52.0055 30.0001 52.0018 30.0001 51.9932 30.0001C51.4921 30.0001 35.6437 29.9194 37.0938 20.9428C37.1033 20.8803 37.1137 20.8178 37.1251 20.7544C37.1469 20.6353 37.1726 20.5142 37.201 20.3912C37.2551 20.1587 37.3102 19.9271 37.3662 19.6946C37.4022 19.5466 37.4383 19.3986 37.4753 19.2516C37.5095 19.1151 37.5436 18.9787 37.5787 18.8413C37.612 18.7116 37.6452 18.5819 37.6793 18.4531C37.6803 18.4483 37.6822 18.4444 37.6831 18.4396C38.15 18.3061 38.6359 18.21 39.1142 18.184C40.4239 18.112 41.6737 18.5646 42.3133 20.199C42.636 21.0244 43.2206 21.4511 43.9807 21.6711C44.3936 21.7912 44.8576 21.8498 45.3606 21.8777C46.7566 21.9555 47.8888 20.938 49.1386 20.4489C54.9351 18.1812 56.4592 21.8441 58.921 22.7934C61.2204 23.6803 62.8878 23.4017 64.0693 22.7233C64.5799 22.4302 64.9993 22.0632 65.3391 21.6826C65.5725 21.4232 65.768 21.157 65.9313 20.9053C66.1571 20.5546 66.3204 20.2307 66.4286 19.9848C66.5016 19.8204 66.551 19.6917 66.5785 19.6129C66.587 19.5889 66.5937 19.5696 66.5984 19.5552C66.6003 19.56 66.6013 19.5648 66.6022 19.5696C66.6345 19.7023 66.6668 19.8349 66.6981 19.9675C66.7123 20.028 66.7275 20.0876 66.7408 20.1481C66.7607 20.2288 66.7787 20.3105 66.7977 20.3912C68.9975 29.9165 52.5171 30.0001 52.0055 30.0001Z" fill="white"/>
</g>
<path d="M77.94 8.832C78.3133 8.78933 78.772 8.752 79.316 8.72C79.8707 8.688 80.5107 8.672 81.236 8.672C82.612 8.672 83.6627 8.928 84.388 9.44C85.124 9.952 85.492 10.656 85.492 11.552C85.492 12.1493 85.3373 12.6507 85.028 13.056C84.7187 13.4613 84.26 13.7973 83.652 14.064C84.3773 14.32 84.9267 14.672 85.3 15.12C85.6733 15.568 85.86 16.128 85.86 16.8C85.86 17.824 85.46 18.6347 84.66 19.232C83.8707 19.8293 82.708 20.128 81.172 20.128C80.5213 20.128 79.9027 20.112 79.316 20.08C78.74 20.0587 78.2813 20.0213 77.94 19.968V8.832ZM81.284 18.864C82.244 18.864 82.9853 18.6933 83.508 18.352C84.0413 18.0107 84.308 17.5147 84.308 16.864C84.308 16.224 84.0467 15.7227 83.524 15.36C83.0013 14.9973 82.2547 14.816 81.284 14.816H79.46V18.768C80.0147 18.832 80.6227 18.864 81.284 18.864ZM81.22 13.632C82.0627 13.632 82.7293 13.4613 83.22 13.12C83.7213 12.768 83.972 12.3093 83.972 11.744C83.972 11.136 83.7267 10.6773 83.236 10.368C82.7453 10.0587 82.0733 9.904 81.22 9.904C80.868 9.904 80.548 9.91467 80.26 9.936C79.972 9.94667 79.7053 9.96267 79.46 9.984V13.632H81.22ZM92.6101 16.432C92.7061 17.2107 92.9781 17.8187 93.4261 18.256C93.8741 18.6933 94.4661 18.912 95.2021 18.912C95.6821 18.912 96.1141 18.864 96.4981 18.768C96.8821 18.6613 97.2501 18.528 97.6021 18.368L97.9381 19.6C97.5541 19.7813 97.1221 19.9253 96.6421 20.032C96.1621 20.1387 95.6235 20.192 95.0261 20.192C94.4288 20.192 93.8901 20.096 93.4101 19.904C92.9301 19.7013 92.5195 19.4187 92.1781 19.056C91.8475 18.6827 91.5915 18.2293 91.4101 17.696C91.2288 17.152 91.1381 16.5333 91.1381 15.84C91.1381 15.2213 91.2288 14.6453 91.4101 14.112C91.5915 13.5787 91.8475 13.12 92.1781 12.736C92.5088 12.3413 92.9035 12.0373 93.3621 11.824C93.8208 11.6 94.3328 11.488 94.8981 11.488C95.4955 11.488 96.0181 11.5893 96.4661 11.792C96.9141 11.9947 97.2875 12.272 97.5861 12.624C97.8848 12.976 98.1088 13.3867 98.2581 13.856C98.4075 14.3253 98.4821 14.8213 98.4821 15.344C98.4821 15.7173 98.4661 16.08 98.4341 16.432H92.6101ZM94.8661 12.736C94.2368 12.736 93.7195 12.9493 93.3141 13.376C92.9195 13.8027 92.6795 14.432 92.5941 15.264H97.1541C97.1541 14.4533 96.9515 13.8293 96.5461 13.392C96.1408 12.9547 95.5808 12.736 94.8661 12.736ZM93.1861 9.824L96.2101 7.824L96.8821 9.168L93.6821 10.8L93.1861 9.824Z" fill="#3F414E"/>
<path d="M10.884 10.736L7.892 17.472H6.388L3.38 10.736V20H1.94V8.8H4.068L7.172 15.888L10.228 8.8H12.404V20H10.884V10.736ZM22.3558 11.264C23.0918 11.264 23.7211 11.424 24.2438 11.744C24.7771 12.064 25.1824 12.5173 25.4598 13.104C25.7478 13.68 25.8918 14.3573 25.8918 15.136V15.984H20.0198C20.0411 16.9547 20.2864 17.696 20.7558 18.208C21.2358 18.7093 21.9024 18.96 22.7558 18.96C23.2998 18.96 23.7798 18.912 24.1958 18.816C24.6224 18.7093 25.0598 18.56 25.5078 18.368V19.6C25.0704 19.792 24.6384 19.9307 24.2118 20.016C23.7851 20.112 23.2784 20.16 22.6918 20.16C21.8811 20.16 21.1611 19.9947 20.5318 19.664C19.9131 19.3333 19.4278 18.8427 19.0758 18.192C18.7344 17.5307 18.5638 16.7253 18.5638 15.776C18.5638 14.8373 18.7184 14.032 19.0278 13.36C19.3478 12.688 19.7904 12.1707 20.3558 11.808C20.9318 11.4453 21.5984 11.264 22.3558 11.264ZM22.3398 12.416C21.6678 12.416 21.1344 12.6347 20.7398 13.072C20.3558 13.4987 20.1264 14.096 20.0518 14.864H24.4198C24.4091 14.1387 24.2384 13.552 23.9078 13.104C23.5771 12.6453 23.0544 12.416 22.3398 12.416ZM22.4838 22.816C22.2598 22.816 22.0624 22.7413 21.8918 22.592C21.7318 22.4427 21.6518 22.2187 21.6518 21.92C21.6518 21.6107 21.7318 21.3813 21.8918 21.232C22.0624 21.0933 22.2598 21.024 22.4838 21.024C22.7078 21.024 22.8998 21.0933 23.0598 21.232C23.2304 21.3813 23.3158 21.6107 23.3158 21.92C23.3158 22.2187 23.2304 22.4427 23.0598 22.592C22.8998 22.7413 22.7078 22.816 22.4838 22.816Z" fill="#3F414E"/>
<defs>
<radialGradient id="paint0_radial" cx="0" cy="0" r="1" gradientUnits="userSpaceOnUse" gradientTransform="translate(52 14.9999) scale(14.9075 15.0942)">
<stop offset="2.23767e-07" stop-color="#8485E0"/>
<stop offset="1" stop-color="#7680FC"/>
</radialGradient>
<clipPath id="clip0">
<rect width="30" height="30" fill="white" transform="translate(37)"/>
</clipPath>
</defs>
</svg>
