<svg width="30" height="30" viewBox="0 0 30 30" fill="none" xmlns="http://www.w3.org/2000/svg">
<g clip-path="url(#clip0)">
<path d="M15.0058 29.9998C15.0058 29.9998 15.002 29.9998 14.9935 29.9998C14.4924 29.9998 -1.35601 29.9191 0.0940769 20.9424C0.103567 20.88 0.114006 20.8175 0.125394 20.7541C0.147221 20.6349 0.172844 20.5139 0.201315 20.3909C0.255408 20.1583 0.31045 19.9268 0.366442 19.6942C0.402504 19.5462 0.438566 19.3983 0.475578 19.2513C0.509742 19.1148 0.543906 18.9784 0.579019 18.841C0.612235 18.7112 0.64545 18.5815 0.679614 18.4528C0.680563 18.4479 0.682461 18.4441 0.68341 18.4393C0.746993 18.1972 0.812475 17.955 0.880804 17.7138C0.889345 17.6812 0.897886 17.6485 0.907376 17.6158C1.40181 15.8487 1.98735 14.1076 2.70479 12.4222C3.48773 10.5859 4.47374 8.93512 5.61919 7.30833C7.28375 4.9455 9.25104 2.35974 11.7536 0.855946C12.7197 0.274607 13.868 -0.0905317 15.0001 0.01901C16.1323 -0.0905317 17.2796 0.274607 18.2457 0.855946C20.7483 2.35974 22.7156 4.9455 24.3801 7.30833C25.5256 8.93512 26.5116 10.5859 27.2936 12.4222C28.1818 14.5044 28.8661 16.6722 29.4269 18.8698C29.4858 19.0975 29.5427 19.3262 29.5987 19.5549C29.6006 19.5597 29.6015 19.5645 29.6025 19.5693C29.6348 19.7019 29.667 19.8345 29.6983 19.9671C29.7126 20.0277 29.7278 20.0872 29.741 20.1478C29.761 20.2285 29.779 20.3102 29.798 20.3909C31.9978 29.9162 15.5173 29.9998 15.0058 29.9998Z" fill="url(#paint0_radial)"/>
<circle cx="19.0001" cy="8.00012" r="2" fill="#D7D9FF"/>
<path d="M15.0055 29.9998C15.0055 29.9998 15.0018 29.9998 14.9932 29.9998C14.4921 29.9998 -1.35628 29.9191 0.0938022 20.9424C0.103292 20.88 0.113731 20.8175 0.125119 20.7541C0.146947 20.6349 0.17257 20.5139 0.20104 20.3909C0.255133 20.1583 0.310176 19.9268 0.366167 19.6942C0.402229 19.5462 0.438292 19.3983 0.475303 19.2512C0.509467 19.1148 0.543631 18.9784 0.578745 18.8409C0.61196 18.7112 0.645175 18.5815 0.679339 18.4527C0.680288 18.4479 0.682186 18.4441 0.683135 18.4393C0.746719 18.1971 0.8122 17.955 0.880529 17.7138C0.915642 17.6869 0.951704 17.66 0.986818 17.6331C2.65707 16.3686 4.60728 14.6486 5.12354 13.1842C6.70174 8.71027 9.8382 11.2614 11.1127 12.5644C11.5179 12.9785 12.15 13.0612 12.6406 12.7566C13.3021 12.3453 14.2217 11.5516 15.1299 10.0363C15.8075 8.90629 17.2148 8.45947 18.3907 9.03313C20.2915 9.96135 23.4954 12.3367 28.7538 18.0847C28.9968 18.3509 29.2217 18.6123 29.4267 18.8698C29.4855 19.0975 29.5424 19.3262 29.5984 19.5549C29.6003 19.5597 29.6013 19.5645 29.6022 19.5693C29.6345 19.7019 29.6668 19.8345 29.6981 19.9671C29.7123 20.0276 29.7275 20.0872 29.7408 20.1478C29.7607 20.2285 29.7787 20.3101 29.7977 20.3909C31.9975 29.9162 15.5171 29.9998 15.0055 29.9998Z" fill="#8589EB"/>
<path opacity="0.15" d="M15.0055 30.0001C15.0055 30.0001 15.0018 30.0001 14.9932 30.0001C14.4921 30.0001 -1.35628 29.9194 0.0938022 20.9427C0.103292 20.8802 0.113731 20.8178 0.125119 20.7544C0.146947 20.6352 0.17257 20.5141 0.20104 20.3912C0.255133 20.1586 0.310176 19.927 0.366167 19.6945C0.402229 19.5465 0.438292 19.3986 0.475303 19.2515C1.23736 19.093 2.07153 19.1987 2.70072 20.0183C2.76336 20.099 2.82599 20.1788 2.89053 20.2566C3.22173 20.6564 3.58425 21.0109 3.98853 21.2838C4.27702 21.4789 4.5864 21.6326 4.9214 21.7316C5.51927 21.9094 6.19876 21.9132 6.98074 21.6711C7.95917 21.3693 9.09893 20.6823 10.4446 19.4668C14.4798 15.8221 20.1511 18.4723 22.0045 20.9023C23.1661 22.4244 25.5898 22.0977 27.1775 21.6336C27.4613 21.5509 27.7412 21.4577 28.0136 21.3492C28.2736 21.2454 28.5279 21.1291 28.7728 20.9946C28.8259 20.9658 28.8791 20.936 28.9313 20.9052C29.0755 20.8207 29.216 20.7303 29.3536 20.6323C29.4798 20.542 29.607 20.4421 29.6791 20.3037C29.7057 20.2547 29.7237 20.2019 29.7408 20.148C29.7607 20.2288 29.7787 20.3104 29.7977 20.3912C31.9975 29.9165 15.5171 30.0001 15.0055 30.0001Z" fill="white"/>
<path opacity="0.15" d="M15.0055 30.0001C15.0055 30.0001 15.0018 30.0001 14.9932 30.0001C14.4921 30.0001 -1.35628 29.9194 0.0938022 20.9428C0.103292 20.8803 0.113731 20.8178 0.125119 20.7544C0.146947 20.6353 0.17257 20.5142 0.20104 20.3912C0.255133 20.1587 0.310176 19.9271 0.366167 19.6946C0.402229 19.5466 0.438292 19.3986 0.475303 19.2516C0.509467 19.1151 0.543631 18.9787 0.578745 18.8413C0.61196 18.7116 0.645175 18.5818 0.679339 18.4531C0.680288 18.4483 0.682186 18.4444 0.683135 18.4396C0.746719 18.1975 0.8122 17.9553 0.880529 17.7142C0.88907 17.6815 0.897611 17.6488 0.907101 17.6161C0.933673 17.6219 0.960245 17.6277 0.986818 17.6334C1.36832 17.7228 1.74792 17.8967 2.11424 18.184C2.70072 18.6443 3.25305 19.3948 3.71996 20.5507C3.79872 20.7448 3.87559 20.9514 3.94867 21.1695C3.96195 21.208 3.97429 21.2454 3.98853 21.2839C4.40514 22.4744 5.09886 23.7226 6.27753 24.2367C6.39331 24.2876 6.51478 24.3309 6.64005 24.3664C8.1708 24.7998 9.91033 23.9542 11.0985 23.025C11.4809 22.7262 11.8349 22.3889 12.2363 22.1179C14.9173 20.3066 18.2388 23.0413 19.8502 25.039C19.9252 25.1323 19.9992 25.2264 20.0723 25.3206C20.3475 25.6771 20.6303 25.9586 20.9188 26.171C23.4593 28.0534 26.4031 24.6672 28.3391 21.6826C28.4909 21.4501 28.6352 21.2195 28.7728 20.9946C28.9863 20.6478 29.1828 20.3134 29.3612 20.0001C29.4371 19.8666 29.5092 19.7368 29.5785 19.6129C29.5861 19.5985 29.5946 19.5841 29.6022 19.5696C29.6345 19.7022 29.6668 19.8349 29.6981 19.9675C29.7123 20.028 29.7275 20.0876 29.7408 20.1481C29.7607 20.2288 29.7787 20.3105 29.7977 20.3912C31.9975 29.9165 15.5171 30.0001 15.0055 30.0001Z" fill="white"/>
<path opacity="0.15" d="M15.0055 30C15.0055 30 15.0018 30 14.9932 30C14.4921 30 -1.35628 29.9193 0.0938022 20.9427C0.797016 20.5257 1.84472 20.075 2.89053 20.2566C3.16953 20.3056 3.44854 20.3988 3.71996 20.5507C4.14511 20.787 4.55413 21.1647 4.9214 21.7316C5.13018 22.0535 5.32568 22.4369 5.50314 22.8895C5.69484 23.3814 5.95202 23.8465 6.27753 24.2366C6.79474 24.8574 7.48467 25.2878 8.3606 25.3368C9.75659 25.4147 11.0311 24.6719 12.1386 23.908C14.6573 22.1717 16.803 25.3176 19.3586 25.9643C19.9015 26.1017 20.4215 26.1661 20.9188 26.1709C23.7677 26.2007 25.8593 24.2635 27.0693 22.7232C27.4945 22.1822 27.8114 21.6903 28.0136 21.3492C28.1891 21.0532 28.2793 20.8716 28.2793 20.8716C28.2793 20.8716 28.6959 20.1634 29.3612 20.0001C29.383 19.9933 29.4058 19.9885 29.4286 19.9847C29.5149 19.9684 29.6051 19.9626 29.6981 19.9674C29.7123 20.0279 29.7275 20.0875 29.7408 20.148C29.7607 20.2288 29.7787 20.3104 29.7977 20.3912C31.9975 29.9165 15.5171 30 15.0055 30Z" fill="white"/>
<path opacity="0.15" d="M15.0055 30.0001C15.0055 30.0001 15.0018 30.0001 14.9932 30.0001C14.4921 30.0001 -1.35628 29.9194 0.0938022 20.9428C0.103292 20.8803 0.113731 20.8178 0.125119 20.7544C0.146947 20.6353 0.17257 20.5142 0.20104 20.3912C0.255133 20.1587 0.310176 19.9271 0.366167 19.6946C0.402229 19.5466 0.438292 19.3986 0.475303 19.2516C0.509467 19.1151 0.543631 18.9787 0.578745 18.8413C0.61196 18.7116 0.645175 18.5819 0.679339 18.4531C0.680288 18.4483 0.682186 18.4444 0.683135 18.4396C1.15005 18.3061 1.63594 18.21 2.11424 18.184C3.42387 18.112 4.67371 18.5646 5.31334 20.199C5.636 21.0244 6.22059 21.4511 6.98074 21.6711C7.39356 21.7912 7.85763 21.8498 8.3606 21.8777C9.75659 21.9555 10.8888 20.938 12.1386 20.4489C17.9351 18.1812 19.4592 21.8441 21.921 22.7934C24.2204 23.6803 25.8878 23.4017 27.0693 22.7233C27.5799 22.4302 27.9993 22.0632 28.3391 21.6826C28.5725 21.4232 28.768 21.157 28.9313 20.9053C29.1571 20.5546 29.3204 20.2307 29.4286 19.9848C29.5016 19.8204 29.551 19.6917 29.5785 19.6129C29.587 19.5889 29.5937 19.5696 29.5984 19.5552C29.6003 19.56 29.6013 19.5648 29.6022 19.5696C29.6345 19.7023 29.6668 19.8349 29.6981 19.9675C29.7123 20.028 29.7275 20.0876 29.7408 20.1481C29.7607 20.2288 29.7787 20.3105 29.7977 20.3912C31.9975 29.9165 15.5171 30.0001 15.0055 30.0001Z" fill="white"/>
</g>
<defs>
<radialGradient id="paint0_radial" cx="0" cy="0" r="1" gradientUnits="userSpaceOnUse" gradientTransform="translate(15 14.9999) scale(14.9075 15.0942)">
<stop offset="2.23767e-07" stop-color="#8485E0"/>
<stop offset="1" stop-color="#7680FC"/>
</radialGradient>
<clipPath id="clip0">
<rect width="30" height="30" fill="white"/>
</clipPath>
</defs>
</svg>
