<svg width="65" height="65" viewBox="0 0 65 65" fill="none" xmlns="http://www.w3.org/2000/svg">
<rect width="65" height="65" rx="20" fill="#FAFFBC"/>
<g clip-path="url(#clip0)">
<path fill-rule="evenodd" clip-rule="evenodd" d="M20.7686 19.3984C21.8079 19.3984 22.6582 18.5481 22.6582 17.5088V15.6191V13.7295C22.6582 12.6901 21.8079 11.8398 20.7686 11.8398C19.7292 11.8398 18.8789 12.6901 18.8789 13.7295V15.6191V17.5088C18.8789 18.5481 19.7292 19.3984 20.7686 19.3984Z" fill="#CFD3DF"/>
<path fill-rule="evenodd" clip-rule="evenodd" d="M26.4375 17.5088C26.4375 18.5481 27.2878 19.3984 28.3271 19.3984C29.3665 19.3984 30.2168 18.5481 30.2168 17.5088V15.6191V13.7295C30.2168 12.6902 29.3665 11.8398 28.3271 11.8398C27.2878 11.8398 26.4375 12.6901 26.4375 13.7295V15.6191V17.5088Z" fill="#CFD3DF"/>
<path fill-rule="evenodd" clip-rule="evenodd" d="M33.9961 17.5088C33.9961 18.5481 34.8464 19.3984 35.8857 19.3984C36.925 19.3984 37.7754 18.5481 37.7754 17.5088V15.6191V13.7295C37.7754 12.6902 36.925 11.8398 35.8857 11.8398C34.8464 11.8398 33.9961 12.6901 33.9961 13.7295V15.6191V17.5088Z" fill="#CFD3DF"/>
<path fill-rule="evenodd" clip-rule="evenodd" d="M41.5547 17.5088C41.5547 18.5481 42.405 19.3984 43.4443 19.3984C44.4836 19.3984 45.334 18.5481 45.334 17.5088V15.6191V13.7295C45.334 12.6902 44.4836 11.8398 43.4443 11.8398C42.405 11.8398 41.5547 12.6901 41.5547 13.7295V15.6191V17.5088Z" fill="#CFD3DF"/>
<path fill-rule="evenodd" clip-rule="evenodd" d="M43.4443 19.3984C42.405 19.3984 41.5547 18.5481 41.5547 17.5088V15.6191H37.7754V17.5088C37.7754 18.5481 36.925 19.3984 35.8857 19.3984C34.8464 19.3984 33.9961 18.5481 33.9961 17.5088V15.6191H30.2168V17.5088C30.2168 18.5481 29.3665 19.3984 28.3271 19.3984C27.2878 19.3984 26.4375 18.5481 26.4375 17.5088V15.6191H22.6582V17.5088C22.6582 18.5481 21.8079 19.3984 20.7686 19.3984C19.7292 19.3984 18.8789 18.5481 18.8789 17.5088V15.6191C16.1074 15.6191 13.8398 17.8867 13.8398 20.6582V23.1777H50.373V20.6582C50.373 17.8869 48.1055 15.6191 45.334 15.6191V17.5088C45.334 18.5481 44.4837 19.3984 43.4443 19.3984Z" fill="#FFEA60"/>
<path fill-rule="evenodd" clip-rule="evenodd" d="M50.373 23.1777H13.8398V48.1213C13.8398 50.8928 16.1076 53.1604 18.8789 53.1604H45.334C48.1053 53.1604 50.373 50.8927 50.373 48.1213V37.7107L42.4781 45.6057L40.7762 47.3076C40.6346 47.4498 40.4636 47.5458 40.2823 47.5928L37.6965 48.2661L34.6789 49.0519C34.0998 49.2025 33.5082 48.8551 33.3577 48.276C33.3049 48.0728 33.3134 47.8681 33.3717 47.6814L34.1446 44.7134L34.8189 42.1239C34.8726 41.9203 34.9811 41.7454 35.1242 41.6112L36.8039 39.9314L44.6989 32.0365L47.2185 29.5169L49.1662 27.5692C49.4875 27.2465 49.9754 27.167 50.3731 27.3413V23.1777H50.373Z" fill="white"/>
<path fill-rule="evenodd" clip-rule="evenodd" d="M49.1661 27.5691L47.2184 29.5168L52.8926 35.191L54.7944 33.2893C55.2611 32.8766 55.2852 32.1534 54.8444 31.7115L50.7001 27.5672C50.6039 27.4688 50.4925 27.3935 50.373 27.3412C49.9753 27.1668 49.4874 27.2465 49.1661 27.5691Z" fill="#FF5D7D"/>
<path fill-rule="evenodd" clip-rule="evenodd" d="M44.6929 32.0383L47.2121 29.5191L52.8854 35.1924L50.3662 37.7116L44.6929 32.0383Z" fill="#FFEA60"/>
<path fill-rule="evenodd" clip-rule="evenodd" d="M36.7983 39.9314L44.692 32.0377L50.3653 37.711L42.4716 45.6047L36.7983 39.9314Z" fill="#66E0F7"/>
<path fill-rule="evenodd" clip-rule="evenodd" d="M42.4781 45.6056L36.8039 39.9314L35.1241 41.6112C34.981 41.7454 34.8726 41.9201 34.8188 42.1239L34.1445 44.7134C35.8765 45.1809 37.2293 46.534 37.6965 48.2661L40.2823 47.5927C40.4635 47.5458 40.6345 47.4498 40.7761 47.3076L42.4781 45.6056Z" fill="#FFE6B4"/>
<path fill-rule="evenodd" clip-rule="evenodd" d="M37.6965 48.2661C37.2293 46.534 35.8765 45.1809 34.1445 44.7134L33.3716 47.6814C33.3133 47.8681 33.3048 48.0728 33.3577 48.276C33.5082 48.8551 34.0997 49.2024 34.6788 49.0518L37.6965 48.2661Z" fill="#8690AF"/>
<path d="M26.4379 29.0146H41.5547C42.0185 29.0146 42.3946 28.6387 42.3946 28.1748C42.3946 27.711 42.0185 27.335 41.5547 27.335H26.4379C25.9741 27.335 25.598 27.711 25.598 28.1748C25.598 28.6387 25.9741 29.0146 26.4379 29.0146Z" fill="black"/>
<path d="M55.4383 31.1177L51.297 26.9764C51.2701 26.9491 51.2412 26.9244 51.2129 26.8989V20.6582C51.2129 17.7216 49.012 15.2542 46.1738 14.8417V13.7295C46.1738 12.2244 44.9494 11 43.4443 11C41.9393 11 40.7148 12.2244 40.7148 13.7295V14.7793H38.6153H38.6152V13.7295C38.6152 12.2244 37.3908 11 35.8857 11C34.3807 11 33.1562 12.2244 33.1562 13.7295V14.7793H31.0567H31.0566V13.7295C31.0566 12.2244 29.8322 11 28.3271 11C26.8221 11 25.5977 12.2244 25.5977 13.7295V14.7793H23.4981H23.498V13.7295C23.498 12.2244 22.2736 11 20.7686 11C19.2635 11 18.0391 12.2244 18.0391 13.7295V14.8418C15.2033 15.2554 13 17.7282 13 20.6582V48.1213C13 51.3629 15.6373 54.0002 18.8789 54.0002H45.334C48.5756 54.0002 51.2129 51.363 51.2129 48.1213V38.0587L55.3728 33.8988C55.7551 33.5499 55.983 33.0552 55.9992 32.5366C56.0157 32.0088 55.8115 31.4919 55.4383 31.1177ZM42.3945 13.7295C42.3945 13.1507 42.8654 12.6797 43.4443 12.6797C44.0232 12.6797 44.4941 13.1506 44.4941 13.7295V17.5088C44.4941 18.0877 44.0232 18.5586 43.4443 18.5586C42.8654 18.5586 42.3945 18.0877 42.3945 17.5088V13.7295ZM34.8359 13.7295C34.8359 13.1507 35.3068 12.6797 35.8857 12.6797C36.4646 12.6797 36.9355 13.1506 36.9355 13.7295V17.5088C36.9355 18.0877 36.4646 18.5586 35.8857 18.5586C35.3068 18.5586 34.8359 18.0877 34.8359 17.5088V13.7295ZM27.2773 13.7295C27.2773 13.1507 27.7482 12.6797 28.3271 12.6797C28.9061 12.6797 29.377 13.1506 29.377 13.7295V17.5088C29.377 18.0877 28.9061 18.5586 28.3271 18.5586C27.7482 18.5586 27.2773 18.0877 27.2773 17.5088V13.7295ZM19.7188 13.7295C19.7188 13.1506 20.1897 12.6797 20.7686 12.6797C21.3474 12.6797 21.8184 13.1506 21.8184 13.7295V17.5088C21.8184 18.0877 21.3475 18.5586 20.7686 18.5586C20.1897 18.5586 19.7188 18.0877 19.7188 17.5088V13.7295ZM18.0391 16.5458V17.5088C18.0391 19.0138 19.2635 20.2383 20.7686 20.2383C22.2736 20.2383 23.498 19.0138 23.498 17.5088V16.459H23.4981H25.5977V17.5088C25.5977 19.0138 26.8221 20.2383 28.3271 20.2383C29.8322 20.2383 31.0566 19.0138 31.0566 17.5088V16.459H31.0567H33.1562V17.5088C33.1562 19.0138 34.3807 20.2383 35.8857 20.2383C37.3908 20.2383 38.6152 19.0138 38.6152 17.5088V16.459H38.6153H40.7148V17.5088C40.7148 19.0138 41.9393 20.2383 43.4443 20.2383C44.9494 20.2383 46.1738 19.0138 46.1738 17.5088V16.5454C48.0839 16.939 49.5332 18.6441 49.5332 20.6582V22.3379H14.6798H14.6797V20.6582C14.6797 18.6487 16.1306 16.9404 18.0391 16.5458ZM49.5332 48.1213C49.5332 50.4367 47.6494 52.3205 45.334 52.3205H18.8789C16.5635 52.3205 14.6797 50.4367 14.6797 48.1213V24.0176H14.6798H49.5332V26.455C49.1706 26.5329 48.8335 26.713 48.5723 26.9753L43.2156 32.332H18.8789C18.4151 32.332 18.0391 32.708 18.0391 33.1719C18.0391 33.6357 18.4151 34.0117 18.8789 34.0117H41.5359L38.2185 37.3291H18.8789C18.4151 37.3291 18.0391 37.7051 18.0391 38.1689C18.0391 38.6328 18.4151 39.0088 18.8789 39.0088H36.5388L34.5385 41.0091C34.2813 41.2542 34.0976 41.5654 34.0061 41.9122L33.8983 42.3262H18.8789C18.4151 42.3262 18.0391 42.7022 18.0391 43.166C18.0391 43.6299 18.4151 44.0059 18.8789 44.0059H33.4609L32.5972 47.3232H18.8789C18.4151 47.3232 18.0391 47.6992 18.0391 48.1631C18.0391 48.6269 18.4151 49.0029 18.8789 49.0029H32.7625C32.9256 49.2718 33.1535 49.4979 33.4323 49.6616C33.7315 49.8373 34.0648 49.9273 34.4029 49.9273C34.5655 49.9273 34.7291 49.9064 34.8905 49.8644L40.4932 48.4055C40.8237 48.3198 41.1274 48.145 41.3701 47.9013L49.5332 39.7384V48.1213ZM34.1733 47.9318C34.1773 47.9189 34.7221 45.8283 34.7221 45.8283C35.5281 46.2325 36.1778 46.8823 36.5817 47.6885L34.4675 48.239C34.3866 48.2601 34.3225 48.2367 34.2829 48.2133C34.2432 48.19 34.1914 48.1453 34.1705 48.0647C34.1589 48.0198 34.1598 47.9751 34.1733 47.9318ZM38.2338 47.2583C37.6401 45.8682 36.5424 44.7703 35.1523 44.1763L35.631 42.338C35.6429 42.2932 35.6655 42.2549 35.6987 42.2238C35.7053 42.2177 36.8039 41.1192 36.8039 41.1192L41.2904 45.6058L40.1811 46.715C40.1486 46.7476 40.1118 46.7694 40.0708 46.78L38.2338 47.2583ZM42.4782 44.4179L37.9917 39.9314L44.6988 33.2242L49.1853 37.7107L42.4782 44.4179ZM50.3731 36.5229L45.8866 32.0364L47.2185 30.7045L51.705 35.191L50.3731 36.5229ZM54.2381 32.6602C54.2252 32.6716 52.8927 34.0033 52.8927 34.0033L48.4062 29.5168L49.7612 28.1618C49.8062 28.1166 49.8708 28.0908 49.9388 28.0908H49.94C49.9847 28.091 50.0487 28.1022 50.0997 28.1543C50.1019 28.1566 54.2498 32.3046 54.2498 32.3046C54.3108 32.3658 54.3218 32.4359 54.3203 32.484C54.3191 32.5238 54.3068 32.5994 54.2381 32.6602Z" fill="black"/>
<path d="M22.6589 29.0146C23.1227 29.0146 23.4987 28.6387 23.4987 28.1748C23.4987 27.711 23.1227 27.335 22.6589 27.335H22.6582C22.1945 27.335 21.8187 27.711 21.8187 28.1748C21.8187 28.6387 22.1951 29.0146 22.6589 29.0146Z" fill="black"/>
</g>
<defs>
<clipPath id="clip0">
<rect width="43" height="43" fill="white" transform="translate(13 11)"/>
</clipPath>
</defs>
</svg>
