<svg width="65" height="65" viewBox="0 0 65 65" fill="none" xmlns="http://www.w3.org/2000/svg">
<rect width="65" height="65" rx="20" fill="#C4BDF7"/>
<g clip-path="url(#clip0)">
<path d="M19.3632 48.5044C17.8039 48.5044 16.4237 48.3629 15.2362 48.0803C13.0311 47.5554 11.615 46.5708 11.0272 45.1541C9.51976 41.521 14.2057 36.7415 18.402 33.3717C20.8281 31.4235 22.5206 29.7709 23.4326 28.4598C24.0606 27.5569 24.2948 26.8385 24.0749 26.4891C23.456 25.5057 19.2979 25.8467 15.7295 27.5568C14.4499 28.17 13.1628 28.3288 12.0076 28.0162C10.8888 27.7135 9.98757 26.9856 9.46998 25.9667C8.72908 24.5086 8.86923 22.6391 9.85464 20.8375C10.9705 18.7969 13.1275 16.8756 16.0922 15.281C19.5636 13.414 23.4968 12.3887 27.1804 12.3887C27.2169 12.3887 27.2532 12.3888 27.2898 12.389C30.8497 12.4086 33.8651 13.3505 35.7805 15.0414C37.8158 16.838 38.372 19.2876 37.3467 21.9392C35.8916 25.7023 35.695 28.4115 36.7932 29.5678C37.3402 30.1438 38.5484 30.6479 41.1971 29.7776C41.5663 29.6563 41.9634 29.8573 42.0845 30.2262C42.2057 30.5951 42.0049 30.9924 41.636 31.1136C38.2883 32.2133 36.6002 31.4066 35.7736 30.5362C34.2367 28.9181 34.3247 25.855 36.0351 21.4321C36.8442 19.3397 36.4344 17.4944 34.8498 16.0957C33.2133 14.6511 30.4549 13.8127 27.2819 13.7952C27.2479 13.795 27.2137 13.7949 27.1797 13.7949C23.7249 13.7949 20.0285 14.7607 16.7583 16.5196C13.3163 18.3707 11.7753 20.2563 11.0883 21.5121C10.3291 22.9004 10.1961 24.2917 10.7235 25.3296C11.4612 26.7815 13.2699 27.1759 15.1216 26.2885C18.5 24.6696 23.9044 23.5783 25.2649 25.7401C26.3689 27.494 24.4119 30.3491 19.2824 34.4683C13.9595 38.7427 11.4239 42.4412 12.326 44.6153C12.8308 45.8321 14.3643 46.4273 15.5618 46.7123C17.3999 47.1498 19.8876 47.2136 22.7563 46.8968C27.3928 46.3848 30.0633 44.819 32.4193 43.4376C35.8583 41.4211 38.5748 39.8282 44.9445 43.2603C45.2863 43.4445 45.4142 43.871 45.23 44.2128C45.0457 44.5546 44.6193 44.6824 44.2775 44.4983C38.604 41.4415 36.4266 42.7181 33.1307 44.6506C30.7759 46.0313 27.8453 47.7495 22.9107 48.2944C21.6435 48.4344 20.4591 48.5043 19.3632 48.5044Z" fill="#404B58"/>
<path d="M40.521 23.3816L48.5629 31.4236L51.8045 28.182L43.7626 20.14L40.521 23.3816Z" fill="#404B58"/>
<path d="M51.8052 28.1822L43.7628 20.1399L48.1051 15.7976C49.2418 14.6609 51.0847 14.6609 52.2215 15.7976L56.1476 19.7237C57.2843 20.8604 57.2843 22.7032 56.1476 23.84L51.8052 28.1822Z" fill="#ED718B"/>
<path d="M30.8758 49.1107L48.5627 31.4238L40.5207 23.3819L22.8338 41.0688L30.8758 49.1107Z" fill="#FDA75F"/>
<path opacity="0.05" d="M25.5148 43.7501L28.1956 46.4309L45.8825 28.744L43.2017 26.0631L25.5148 43.7501Z" fill="black"/>
<path d="M30.827 45.7644L29.1531 46.1881C28.7206 46.2976 28.3283 45.9052 28.4378 45.4728L28.8615 43.7989C28.971 43.3666 28.5786 42.9741 28.1462 43.0836L26.4723 43.5074C26.0399 43.6169 25.6475 43.2244 25.757 42.7921L26.1808 41.1182C26.2903 40.6858 25.8978 40.2933 25.4655 40.4028L22.8338 41.0691C21.9158 41.9872 21.2213 43.1044 20.8046 44.3341L18.4276 51.3473C17.9723 52.6906 19.2546 53.9729 20.598 53.5177L27.6112 51.1407C28.8409 50.7239 29.958 50.0295 30.8762 49.1114L31.5425 46.4798C31.6518 46.0473 31.2594 45.6549 30.827 45.7644Z" fill="#FBE096"/>
<path d="M19.8367 47.189L18.4274 51.3471C17.9721 52.6905 19.2544 53.9728 20.5978 53.5175L24.7559 52.1082L19.8367 47.189Z" fill="#404B58"/>
<path opacity="0.1" d="M56.1474 19.7237L54.6522 18.2285C55.7888 19.3652 55.7888 21.2081 54.6522 22.3448L50.3099 26.6871L47.0682 29.9288L29.3807 47.6164C28.4627 48.5344 27.3455 49.2289 26.1158 49.6456L19.1026 52.0226C18.8442 52.1102 18.5882 52.1329 18.3462 52.1038C18.4683 53.1196 19.513 53.8855 20.5978 53.5178L27.611 51.1408C28.8407 50.7241 29.9579 50.0297 30.876 49.1116L48.5634 31.4241L51.8051 28.1824L56.1474 23.8401C57.2841 22.7034 57.2841 20.8604 56.1474 19.7237Z" fill="black"/>
</g>
<defs>
<clipPath id="clip0">
<rect width="48" height="48" fill="white" transform="translate(9 9)"/>
</clipPath>
</defs>
</svg>
