<svg xmlns="http://www.w3.org/2000/svg" fill="none" viewBox="0 0 65 65" height="65" width="65">
<rect fill="#FFC4C4" rx="20" height="65" width="65"></rect>
<g clip-path="url(#clip0)">
<path fill="#FFEEE6" d="M25.0341 50.9549L25.823 47.48L25.0341 43.0857L23.2072 42.321L21.6247 43.0857V47.1437C21.6247 47.889 21.6078 48.0342 20.8601 48.2277C19.6357 48.5423 18.2081 49.6651 18.4113 50.9549H25.0341Z" clip-rule="evenodd" fill-rule="evenodd"></path>
<path fill="#FFEEE6" d="M32.3756 30.3599L30.7543 29.2104L29.2928 30.3599L28.7362 32.7047L29.2928 35.1802C29.4767 36.0078 29.9848 36.7241 30.8341 36.7241C31.6811 36.7241 32.3755 36.0296 32.3755 35.1802V30.3599H32.3756Z" clip-rule="evenodd" fill-rule="evenodd"></path>
<path fill="#FFEEE6" d="M20.7754 30.36L19.234 29.5518L17.6902 30.36V35.1802C17.6902 36.0296 18.3846 36.7241 19.234 36.7241C20.0809 36.7241 20.7754 36.0296 20.7754 35.1802L21.5449 32.8742L20.7754 30.36Z" clip-rule="evenodd" fill-rule="evenodd"></path>
<path fill="#7E707D" d="M29.2929 42.6599V35.8651V35.1803L25.0341 33.9075L20.7753 35.1803V35.8651V42.6599C20.7753 42.8947 20.9664 43.0858 21.2012 43.0858H21.6247H25.0341H28.4435H28.8669C29.0993 43.0858 29.2929 42.8947 29.2929 42.6599Z" clip-rule="evenodd" fill-rule="evenodd"></path>
<path fill="#F37C7C" d="M22.8636 23.9209C19.6526 23.9209 17.6902 26.2367 17.6902 29.6074V30.36H20.7754V35.1803H29.2929V30.36H32.3757V29.6074C32.3757 26.2366 30.4133 23.9209 27.2047 23.9209C26.2464 25.9729 23.8363 26.0915 22.8636 23.9209Z" clip-rule="evenodd" fill-rule="evenodd"></path>
<path fill="#FFCEBF" d="M22.9023 23.9499C22.8878 23.9402 22.8756 23.9305 22.8635 23.9209V24.7968C22.8635 26.1107 23.8387 27.1851 25.034 27.1851C26.2269 27.1851 27.2045 26.1107 27.2045 24.7968V23.9209C25.581 22.7859 24.238 22.9964 22.9023 23.9499Z" clip-rule="evenodd" fill-rule="evenodd"></path>
<path fill="#FFEEE6" d="M29.2058 48.2278C28.4606 48.0342 28.4436 47.8889 28.4436 47.1437V43.0857H27.2482H25.0342V50.9549H31.657C31.8603 49.6651 30.4302 48.5423 29.2058 48.2278Z" clip-rule="evenodd" fill-rule="evenodd"></path>
<path fill="#FFDFCF" d="M28.4435 47.1437V43.0857H27.2482V48.177C27.2482 48.9198 27.2651 49.0675 28.0128 49.2586C28.8912 49.4861 29.8784 50.1322 30.2873 50.9549H31.657C31.8602 49.6651 30.4302 48.5424 29.2058 48.2278C28.4604 48.0342 28.4435 47.8889 28.4435 47.1437Z" clip-rule="evenodd" fill-rule="evenodd"></path>
<path fill="#FFDFCF" d="M23.413 43.0857H25.0342V50.9549H23.413V43.0857Z" clip-rule="evenodd" fill-rule="evenodd"></path>
<path fill="#FFEEE6" d="M26.457 24.3541C28.1218 23.5797 29.4357 21.7407 29.4357 20.2549V18.9095C27.6524 18.786 27.9185 16.526 26.6894 16.8429C25.7384 17.0873 25.3875 17.2108 25.0342 17.2108C24.681 17.2108 24.33 17.0873 23.3791 16.8429C22.1498 16.526 22.4136 18.786 20.6327 18.9095V20.2549C20.6327 21.7407 21.9442 23.5797 23.609 24.3541C23.7154 24.4025 23.8219 24.4485 23.9308 24.4895C24.33 24.6371 24.6809 24.7098 25.0342 24.7098C25.3851 24.7098 25.7384 24.6372 26.1352 24.4895C26.2441 24.4484 26.3529 24.4025 26.457 24.3541Z" clip-rule="evenodd" fill-rule="evenodd"></path>
<path fill="#7E707D" d="M29.4357 18.9093C29.4357 15.6402 27.2337 13.985 25.0342 13.9487C22.8322 13.985 20.6327 15.6402 20.6327 18.9093C22.4136 18.7859 22.1499 17.4235 23.3791 17.7406C24.33 17.985 24.6809 18.1084 25.0342 18.1084C25.3875 18.1084 25.7384 17.985 26.6894 17.7406C27.9185 17.4235 27.6524 18.7859 29.4357 18.9093Z" clip-rule="evenodd" fill-rule="evenodd"></path>
<path fill="#EDF4FF" d="M47.5668 50.9549V15.069L43.3903 13.5325L40.0076 15.069V18.6576V47.3663V50.9549L43.5114 52.4915L47.5668 50.9549Z" clip-rule="evenodd" fill-rule="evenodd"></path>
<path fill="#F9F7F8" d="M48.6025 12.0709C48.6025 11.8337 48.4089 11.6401 48.1717 11.6401H35.5406V13.3533C35.5406 14.2971 36.3101 15.069 37.2538 15.069H40.0076H43.3903H47.5668H48.1717C48.4089 15.069 48.6025 14.873 48.6025 14.6383V12.0709Z" clip-rule="evenodd" fill-rule="evenodd"></path>
<path fill="#7E707D" d="M47.5669 50.9549H40.0076H33.3993H27.1007H20.8021H16.0109C15.1567 50.9549 14.4574 51.6542 14.4574 52.5109V53.6482C14.4574 53.8781 14.6438 54.0668 14.8736 54.0668H50.7851C51.0416 54.0668 51.2496 53.8563 51.2496 53.6022V51.4195C51.2496 51.163 51.0415 50.9548 50.7851 50.9548H47.5669V50.9549Z" clip-rule="evenodd" fill-rule="evenodd"></path>
<path fill="#6A5D6A" d="M29.4357 18.9094C29.4357 16.1799 27.8991 14.5731 26.111 14.0964C27.1781 14.8587 27.9524 16.1557 28.0202 17.9875C28.0225 18.0722 28.025 18.1593 28.025 18.2464V18.3287C28.3129 18.5949 28.6976 18.8586 29.4357 18.9094Z" clip-rule="evenodd" fill-rule="evenodd"></path>
<path fill="#FFDFCF" d="M29.4357 20.2548V18.9094C28.6977 18.8586 28.313 18.5948 28.025 18.3286V19.5942C28.025 21.0775 26.7135 22.919 25.0487 23.6933C24.9422 23.7417 24.8358 23.7853 24.7269 23.8264C24.3276 23.974 23.9768 24.049 23.6234 24.049C23.3887 24.049 23.1516 24.0152 22.9023 23.9498C23.1274 24.1047 23.3645 24.2403 23.6089 24.354C23.7154 24.4024 23.8218 24.4484 23.9307 24.4894C24.33 24.637 24.6808 24.7097 25.0342 24.7097C25.385 24.7097 25.7384 24.6371 26.1351 24.4894C26.2441 24.4483 26.3529 24.4024 26.457 24.354C28.1218 23.5796 29.4357 21.7405 29.4357 20.2548Z" clip-rule="evenodd" fill-rule="evenodd"></path>
<path fill="#F0F0F0" d="M48.6025 14.6383V12.0709C48.6025 11.8337 48.4088 11.6401 48.1717 11.6401H45.326C45.5632 11.6401 45.7568 11.8337 45.7568 12.0709V14.6383C45.7568 14.8731 45.5632 15.0691 45.326 15.0691H47.5667H48.1716C48.4088 15.069 48.6025 14.873 48.6025 14.6383Z" clip-rule="evenodd" fill-rule="evenodd"></path>
<path fill="#DBEAFF" d="M47.5668 50.9549V15.0691H45.3261H44.7212V50.9549H47.5668Z" clip-rule="evenodd" fill-rule="evenodd"></path>
<path fill="#6A5D6A" d="M51.2497 53.6022V51.4195C51.2497 51.163 51.0416 50.9548 50.7852 50.9548H47.9419C48.1959 50.9548 48.4041 51.163 48.4041 51.4195V53.6022C48.4041 53.8562 48.1959 54.0668 47.9419 54.0668H50.7851C51.0416 54.0668 51.2497 53.8563 51.2497 53.6022Z" clip-rule="evenodd" fill-rule="evenodd"></path>
<path fill="#6A5D6A" d="M29.2928 42.6598V35.865V35.1802H27.6741V35.865V42.6598C27.6741 42.8946 27.4829 43.0857 27.2482 43.0857H28.4435H28.867C29.0993 43.0857 29.2928 42.8946 29.2928 42.6598Z" clip-rule="evenodd" fill-rule="evenodd"></path>
<path fill="#EE6161" d="M32.3756 29.6074C32.3756 26.2366 30.4132 23.9209 27.2046 23.9209C30.5317 25.501 30.6987 27.9499 30.8342 30.36H32.3756V29.6074Z" clip-rule="evenodd" fill-rule="evenodd"></path>
<path fill="#FFDFCF" d="M32.3757 30.3599H30.8344V35.1801C30.8344 35.7487 30.5222 36.2473 30.0625 36.5158C30.2899 36.6465 30.5537 36.7239 30.8344 36.7239C31.6813 36.7239 32.3757 36.0295 32.3757 35.1801V30.3599Z" clip-rule="evenodd" fill-rule="evenodd"></path>
<path fill="#FFDFCF" d="M20.7754 30.3599H19.234V35.1801C19.234 35.7487 18.9219 36.2473 18.4622 36.5158C18.6897 36.6465 18.9534 36.7239 19.234 36.7239C20.0809 36.7239 20.7754 36.0295 20.7754 35.1801V30.3599Z" clip-rule="evenodd" fill-rule="evenodd"></path>
<path fill="#EE6161" d="M29.2929 30.4954C28.4556 30.4954 27.6741 30.943 27.6741 31.6423V35.1801H29.2929V30.4954Z" clip-rule="evenodd" fill-rule="evenodd"></path>
<path fill="black" d="M50.7851 50.3147H48.2071L48.2059 32.983C48.2059 32.6294 47.9193 32.3428 47.5657 32.3428C47.2121 32.3428 46.9254 32.6294 46.9254 32.983L46.9266 50.3147H40.6478V48.0067H43.0444C43.398 48.0067 43.6846 47.7201 43.6846 47.3664C43.6846 47.0128 43.398 46.7262 43.0444 46.7262H40.6478V44.4181H41.6651C42.0187 44.4181 42.3054 44.1315 42.3054 43.7778C42.3054 43.4242 42.0187 43.1376 41.6651 43.1376H40.6478V40.8295H43.0444C43.398 40.8295 43.6846 40.5429 43.6846 40.1893C43.6846 39.8356 43.398 39.549 43.0444 39.549H40.6478V37.2409H41.6651C42.0187 37.2409 42.3054 36.9543 42.3054 36.6007C42.3054 36.247 42.0187 35.9604 41.6651 35.9604H40.6478V33.6523H43.0444C43.398 33.6523 43.6846 33.3657 43.6846 33.0121C43.6846 32.6584 43.398 32.3718 43.0444 32.3718H40.6478V30.0637H41.6651C42.0187 30.0637 42.3054 29.7771 42.3054 29.4235C42.3054 29.0698 42.0187 28.7832 41.6651 28.7832H40.6478V26.4752H43.0444C43.398 26.4752 43.6846 26.1886 43.6846 25.835C43.6846 25.4813 43.398 25.1947 43.0444 25.1947H40.6478V22.8866H41.6651C42.0187 22.8866 42.3054 22.6 42.3054 22.2464C42.3054 21.8927 42.0187 21.6061 41.6651 21.6061H40.6478V19.2979H43.0444C43.398 19.2979 43.6846 19.0114 43.6846 18.6577C43.6846 18.304 43.398 18.0175 43.0444 18.0175H40.6478V15.7094H46.9266V30.0398C46.9266 30.3935 47.2133 30.6801 47.5669 30.6801C47.9204 30.6801 48.2071 30.3935 48.2071 30.0398V15.7076C48.7812 15.6887 49.2428 15.217 49.2428 14.6384V12.071C49.2427 11.4804 48.7622 11 48.1718 11H35.5407H28.5379C28.1843 11 27.8977 11.2866 27.8977 11.6402C27.8977 11.9939 28.1843 12.2805 28.5379 12.2805H34.9004V13.3534C34.9004 14.6525 35.9561 15.7094 37.2539 15.7094H39.3673V50.3147H32.2796C32.0453 49.0282 30.7158 47.9549 29.3667 47.6082C29.2221 47.5706 29.1396 47.5427 29.0933 47.5244C29.0838 47.4264 29.0838 47.2554 29.0838 47.1438V43.7037C29.568 43.6033 29.9331 43.1735 29.9331 42.6599V37.1685C30.208 37.2939 30.513 37.3643 30.8342 37.3643C32.0372 37.3643 33.0159 36.3845 33.0159 35.1803V30.36V29.6074C33.0159 27.7752 32.4818 26.2077 31.4713 25.0741C30.7361 24.2493 29.7878 23.6991 28.6834 23.4443C29.5267 22.4919 30.0758 21.3186 30.0758 20.2549V18.9094C30.0758 17.2221 29.5353 15.7888 28.5128 14.7644C27.5975 13.8474 26.3659 13.3303 25.0447 13.3085C25.0377 13.3084 25.0306 13.3084 25.0236 13.3085C23.7015 13.3303 22.4694 13.8474 21.5544 14.7644C20.5325 15.7886 19.9924 17.2219 19.9924 18.9094V20.2548C19.9924 21.3187 20.541 22.4918 21.3837 23.4442C20.2789 23.699 19.3303 24.2491 18.5949 25.0739C17.5841 26.2073 17.0499 27.775 17.0499 29.6073V30.3599V35.1801C17.0499 36.3843 18.0297 37.3642 19.2339 37.3642C19.5552 37.3642 19.8602 37.2937 20.1351 37.1683V42.6597C20.1351 43.1734 20.5002 43.6032 20.9844 43.7036V47.1437C20.9844 47.2551 20.9844 47.4259 20.9749 47.5238C20.9285 47.5423 20.8458 47.5701 20.7007 47.6077C19.3511 47.9544 18.0223 49.0278 17.7884 50.3146H16.0109C14.8012 50.3146 13.8171 51.2998 13.8171 52.5109V53.6481C13.8171 54.232 14.2911 54.707 14.8735 54.707H50.7851C51.3942 54.707 51.8899 54.2114 51.8899 53.6022V51.4196C51.8899 50.8104 51.3943 50.3147 50.7851 50.3147ZM36.1809 13.3534V12.2805H47.9622V14.4289H47.5668H40.0075H37.2539C36.6622 14.4289 36.1809 13.9465 36.1809 13.3534ZM30.9559 50.3147H25.6743V43.7259H27.8032V47.1437C27.8032 48.0826 27.9257 48.5569 29.0463 48.8479C29.7788 49.0362 30.6859 49.6303 30.9559 50.3147ZM31.7354 35.1802C31.7354 35.6785 31.3311 36.0838 30.8342 36.0838C30.3373 36.0838 29.9331 35.6785 29.9331 35.1802V31.0002H31.7354V35.1802ZM25.0341 14.5891C26.6639 14.6207 28.402 15.7262 28.7375 18.0692C28.5615 17.9668 28.4326 17.835 28.2943 17.6938C28.0347 17.4287 27.6674 17.0534 27.0252 17.0534C26.8757 17.0534 26.7113 17.0737 26.5298 17.1206C26.2991 17.1799 25.2185 17.4682 25.0341 17.4682C24.8497 17.4682 23.7691 17.1799 23.5389 17.1207C22.5775 16.8731 22.0932 17.3671 21.7728 17.694C21.6347 17.8349 21.506 17.9662 21.3307 18.0686C21.6667 15.7261 23.4045 14.6206 25.0341 14.5891ZM21.2729 20.2548V19.4566C22.019 19.2715 22.4105 18.8727 22.6874 18.5902C22.9634 18.3084 22.9741 18.2975 23.2197 18.3607C23.446 18.4189 24.6818 18.7487 25.0342 18.7487C25.3865 18.7487 26.6223 18.4189 26.8492 18.3606C27.0936 18.2974 27.1044 18.3086 27.3794 18.5896C27.6562 18.8724 28.0478 19.2717 28.7954 19.4568V20.2549C28.7954 21.5976 27.4214 23.3299 25.9121 23.8895C25.5818 24.0123 25.3028 24.0694 25.0342 24.0694C24.7659 24.0694 24.4859 24.0121 24.1534 23.8892C22.6457 23.3303 21.2729 21.598 21.2729 20.2548ZM26.5514 25.0129C26.4578 25.875 25.8137 26.5449 25.0342 26.5449C24.2549 26.5449 23.6111 25.8755 23.517 25.014C23.5806 25.0407 23.6446 25.0662 23.7089 25.09C24.1885 25.2672 24.6097 25.3498 25.0342 25.3498C25.46 25.3498 25.8807 25.2671 26.3577 25.0897C26.4226 25.0657 26.4872 25.04 26.5514 25.0129ZM22.2234 24.598V24.7968C22.2234 26.4667 23.4843 27.8254 25.0342 27.8254C26.584 27.8254 27.8449 26.4668 27.8449 24.7968V24.5981C30.2615 24.8747 31.7354 26.7401 31.7354 29.6074V29.7197H29.2929C28.9393 29.7197 28.6526 30.0063 28.6526 30.3599V34.5399H26.4061C26.0526 34.5399 25.7659 34.8265 25.7659 35.1802C25.7659 35.5338 26.0526 35.8204 26.4061 35.8204H28.6526V42.4455H25.6743V39.1597H26.331C26.6846 39.1597 26.9713 38.8732 26.9713 38.5195C26.9713 38.1658 26.6846 37.8793 26.331 37.8793H23.7371C23.3835 37.8793 23.0969 38.1658 23.0969 38.5195C23.0969 38.8732 23.3835 39.1597 23.7371 39.1597H24.3938V42.4455H21.4156V35.8204H23.6838C24.0374 35.8204 24.3241 35.5338 24.3241 35.1802C24.3241 34.8265 24.0374 34.5399 23.6838 34.5399H21.4156V30.3599C21.4156 30.0063 21.1289 29.7197 20.7754 29.7197H18.3304V29.6074C18.3304 26.74 19.8053 24.8745 22.2234 24.598ZM19.234 36.0838C18.7358 36.0838 18.3305 35.6785 18.3305 35.1802V31.0002H20.1352V35.1802C20.1351 35.6785 19.7308 36.0838 19.234 36.0838ZM21.0204 48.8476C22.1421 48.5573 22.2649 48.083 22.2649 47.1437V43.7259H24.3938V50.3147H19.1121C19.3816 49.6301 20.2879 49.0359 21.0204 48.8476ZM50.6095 53.4266H15.0976V52.5109C15.0976 52.006 15.5073 51.5951 16.0109 51.5951H50.6095V53.4266Z"></path>
</g>
<defs>
<clipPath id="clip0">
<rect transform="translate(11 11)" fill="white" height="43.7071" width="43.7071"></rect>
</clipPath>
</defs>
</svg>
