<svg width="65" height="65" viewBox="0 0 65 65" fill="none" xmlns="http://www.w3.org/2000/svg">
<rect width="65" height="65" rx="20" fill="#BCEFFF"/>
<path d="M46.1797 27.7174V32.8737H32L24.6953 30.2173L17.8203 27.7174C17.8203 26.4378 18.1056 25.1909 18.6376 24.0599C19.1695 22.929 19.9481 21.9141 20.9338 21.0985C22.2779 19.9848 23.2043 18.4482 23.5609 16.7398L24.2656 13.3633H39.7344L40.4391 16.7398C40.6178 17.594 40.9384 18.4052 41.3827 19.1417C41.8261 19.8791 42.3941 20.5416 43.0662 21.0985C45.0384 22.7305 46.1797 25.1573 46.1797 27.7174Z" fill="#C4E2FE"/>
<path d="M31.1406 13.3633L30.4359 16.7398C30.2572 17.594 29.9366 18.4052 29.4923 19.1417C29.0489 19.8791 28.4809 20.5416 27.8088 21.0985C25.8366 22.7305 24.6953 25.1573 24.6953 27.7174V30.2173L17.8203 27.7174C17.8203 26.4378 18.1056 25.1909 18.6376 24.0599C19.1695 22.929 19.9481 21.9141 20.9338 21.0985C22.2779 19.9848 23.2043 18.4482 23.5609 16.7398L24.2656 13.3633H31.1406Z" fill="#B0D8FD"/>
<path d="M39.7344 15.082H24.2656C23.3164 15.082 22.5469 14.3125 22.5469 13.3633C22.5469 12.414 23.3164 11.6445 24.2656 11.6445H39.7344C40.6836 11.6445 41.4531 12.414 41.4531 13.3633C41.4531 14.3125 40.6836 15.082 39.7344 15.082Z" fill="#DCEEFE"/>
<path d="M29.4219 13.3633C29.4219 12.414 30.1914 11.6445 31.1406 11.6445H24.2656C23.3164 11.6445 22.5469 12.414 22.5469 13.3633C22.5469 14.3125 23.3164 15.082 24.2656 15.082H31.1406C30.1914 15.082 29.4219 14.3125 29.4219 13.3633Z" fill="#C4E2FE"/>
<path d="M26.4141 54.3557H37.5859C42.3322 54.3557 46.1797 50.5081 46.1797 45.7619V32.874C32 32.874 32 27.7178 17.8203 27.7178V45.7619C17.8203 50.5081 21.6678 54.3557 26.4141 54.3557Z" fill="#F7F0EB"/>
<path d="M24.6953 45.7617V28.2272C22.8011 27.9128 20.5792 27.7175 17.8203 27.7175V45.7617C17.8203 50.508 21.6678 54.3555 26.4141 54.3555H33.2891C28.5428 54.3555 24.6953 50.508 24.6953 45.7617Z" fill="#EFE2DD"/>
<path d="M25.1556 43.7582C26.5503 43.7582 27.681 42.8578 27.681 41.747C27.681 40.6363 26.5503 39.7358 25.1556 39.7358C23.7608 39.7358 22.6301 40.6363 22.6301 41.747C22.6301 42.8578 23.7608 43.7582 25.1556 43.7582Z" fill="#FDA0C1"/>
<path d="M38.8445 43.7582C40.2393 43.7582 41.37 42.8578 41.37 41.747C41.37 40.6363 40.2393 39.7358 38.8445 39.7358C37.4498 39.7358 36.3191 40.6363 36.3191 41.747C36.3191 42.8578 37.4498 43.7582 38.8445 43.7582Z" fill="#FDA0C1"/>
<path d="M34.0363 40.2018C34.0363 38.9434 33.1247 38.8252 32.0002 38.8252C30.8756 38.8252 29.964 38.9434 29.964 40.2018C29.964 41.4602 30.8756 42.4803 32.0002 42.4803C33.1247 42.4803 34.0363 41.4602 34.0363 40.2018Z" fill="#6E6E6E"/>
<path d="M25.5778 39.9907C25.2217 39.9907 24.9332 39.7022 24.9332 39.3462V38.3149C24.9332 37.9589 25.2217 37.6704 25.5778 37.6704C25.9338 37.6704 26.2223 37.9589 26.2223 38.3149V39.3462C26.2223 39.7021 25.9337 39.9907 25.5778 39.9907Z" fill="black"/>
<path d="M32.0001 43.1248C30.522 43.1248 29.3195 41.8136 29.3195 40.2018C29.3195 38.1807 31.198 38.1807 32.0001 38.1807C32.8022 38.1807 34.6808 38.1807 34.6808 40.2018C34.6808 41.8137 33.4782 43.1248 32.0001 43.1248ZM32.0001 39.4698C30.6648 39.4698 30.6085 39.6942 30.6085 40.2019C30.6085 41.1028 31.2329 41.8358 32.0001 41.8358C32.7674 41.8358 33.3917 41.1029 33.3917 40.2019C33.3917 39.6942 33.3354 39.4698 32.0001 39.4698Z" fill="black"/>
<path d="M38.4224 39.9907C38.0663 39.9907 37.7778 39.7022 37.7778 39.3462V38.3149C37.7778 37.9589 38.0663 37.6704 38.4224 37.6704C38.7784 37.6704 39.0669 37.9589 39.0669 38.3149V39.3462C39.0669 39.7021 38.7784 39.9907 38.4224 39.9907Z" fill="black"/>
<path d="M43.4774 20.6021C42.8633 20.0932 42.3443 19.4902 41.9345 18.8088C41.5241 18.1284 41.2332 17.3878 41.07 16.6081L40.8296 15.4565C41.5826 15.0608 42.0977 14.2712 42.0977 13.3633C42.0977 12.0602 41.0374 11 39.7344 11H24.2656C22.9626 11 21.9023 12.0602 21.9023 13.3633C21.9023 14.2712 22.4174 15.0608 23.1704 15.4565L22.93 16.6081C22.6046 18.167 21.7497 19.5855 20.523 20.602C19.4829 21.4624 18.6293 22.5632 18.0542 23.7856C17.4796 25.0076 17.1758 26.3672 17.1758 27.7174V27.7175V37.0254C17.1758 37.3814 17.4643 37.6699 17.8203 37.6699C18.1764 37.6699 18.4648 37.3814 18.4648 37.0254V28.3658C25.0092 28.4397 28.301 29.6364 31.7797 30.9014C35.2106 32.149 38.7555 33.4377 45.5352 33.5145V45.7617C45.5352 50.145 41.9692 53.7109 37.5859 53.7109H26.4141C22.0308 53.7109 18.4648 50.145 18.4648 45.7617V39.6038C18.4648 39.2477 18.1764 38.9592 17.8203 38.9592C17.4643 38.9592 17.1758 39.2477 17.1758 39.6038V45.7617C17.1758 50.8557 21.3201 55 26.4141 55H37.5859C42.6799 55 46.8242 50.8557 46.8242 45.7617V27.7174C46.8242 24.9556 45.6042 22.3621 43.4774 20.6021ZM32.2203 29.6899C28.7938 28.4439 25.2539 27.1569 18.4914 27.0771C18.569 26.1298 18.817 25.1926 19.2207 24.3342C19.7155 23.2825 20.4499 22.3353 21.345 21.5948C22.796 20.3925 23.807 18.715 24.1918 16.8714L24.4308 15.7266H35.0298C35.3859 15.7266 35.6743 15.4381 35.6743 15.082C35.6743 14.726 35.3859 14.4375 35.0298 14.4375H24.2656C23.6733 14.4375 23.1914 13.9556 23.1914 13.3633C23.1914 12.7709 23.6733 12.2891 24.2656 12.2891H39.7344C40.3267 12.2891 40.8086 12.7709 40.8086 13.3633C40.8086 13.9556 40.3267 14.4375 39.7344 14.4375H37.608C37.252 14.4375 36.9635 14.726 36.9635 15.082C36.9635 15.4381 37.252 15.7266 37.608 15.7266H39.5692L39.8082 16.8718C40.0012 17.794 40.3452 18.6698 40.8303 19.4739C41.3147 20.2794 41.9285 20.9929 42.6552 21.5951C44.4854 23.1095 45.5352 25.341 45.5352 27.7174V32.2255C38.9908 32.1517 35.6991 30.9549 32.2203 29.6899Z" fill="black"/>
</svg>
