<svg width="65" height="65" viewBox="0 0 65 65" fill="none" xmlns="http://www.w3.org/2000/svg">
<rect width="65" height="65" rx="20" fill="#C8FFB5"/>
<path d="M34.161 34.159L31.8406 31.8386L13.0954 50.5838C12.7877 50.8915 12.6149 51.3088 12.6149 51.744C12.6149 52.6501 13.3495 53.3847 14.2556 53.3847C14.6908 53.3847 15.108 53.2119 15.4157 52.9042L34.161 34.159Z" fill="#DCEEFE"/>
<path d="M31.8406 31.8386L16.6687 47.0105C16.9764 46.7028 17.3937 46.5299 17.8289 46.5299C18.735 46.5299 19.4696 47.2645 19.4696 48.1706C19.4696 48.6058 19.2967 49.0231 18.989 49.3308L34.161 34.1589L31.8406 31.8386Z" fill="#C4E2FE"/>
<path d="M37.5482 23.8093L45.6612 15.6963L50.3012 20.3363L42.1881 28.4493L37.5482 23.8093Z" fill="#C4E2FE"/>
<path d="M37.5482 23.8091L45.6612 15.6961L47.9811 18.016L39.8681 26.129L37.5482 23.8091Z" fill="#B0D8FD"/>
<path d="M52.9038 22.931C53.5445 22.2903 53.5445 21.2514 52.9038 20.6107L45.3889 13.0958C44.7482 12.455 43.7093 12.455 43.0686 13.0958C42.4278 13.7365 42.4278 14.7754 43.0686 15.4161L50.5835 22.931C51.2242 23.5718 52.263 23.5718 52.9038 22.931Z" fill="#DCEEFE"/>
<path d="M46.8261 16.8532C47.4668 16.2125 48.5057 16.2125 49.1464 16.8532L45.389 13.0958C44.7482 12.455 43.7094 12.455 43.0686 13.0958C42.4279 13.7365 42.4279 14.7754 43.0686 15.4161L46.8261 19.1736C46.1853 18.5328 46.1853 17.494 46.8261 16.8532Z" fill="#C4E2FE"/>
<path d="M45.6728 31.9283L34.0711 20.3267L18.989 35.4088C17.7075 36.6903 17.7075 38.7679 18.989 40.0494L25.95 47.0104C27.2315 48.2919 29.3092 48.2919 30.5907 47.0104L45.6728 31.9283Z" fill="#FFF2B4"/>
<path d="M23.6297 40.0494L38.7118 24.9673L34.0711 20.3267L18.989 35.4088C17.7075 36.6903 17.7075 38.7679 18.989 40.0494L23.6297 44.6901C22.3482 43.4086 22.3482 41.3309 23.6297 40.0494Z" fill="#FFDF8E"/>
<path d="M48.5732 34.8289C49.2139 34.1881 49.2139 33.1493 48.5732 32.5085L33.4911 17.4264C32.8503 16.7856 31.8115 16.7856 31.1707 17.4264C30.53 18.0671 30.53 19.1059 31.1707 19.7467L46.2528 34.8289C46.8936 35.4696 47.9324 35.4696 48.5732 34.8289Z" fill="#DCEEFE"/>
<path d="M36.3915 22.6472C37.0322 22.0064 38.071 22.0064 38.7118 22.6472L33.4911 17.4264C32.8503 16.7856 31.8115 16.7856 31.1707 17.4264C30.53 18.0671 30.53 19.1059 31.1707 19.7467L36.3915 24.9674C35.7507 24.3267 35.7507 23.2879 36.3915 22.6472Z" fill="#C4E2FE"/>
<path d="M27.647 42.1959C28.638 41.2048 28.8017 39.7617 28.0125 38.9725C27.2233 38.1833 25.7801 38.3469 24.7891 39.3379C23.7981 40.3289 23.6345 41.7721 24.4237 42.5613C25.2129 43.3505 26.656 43.1869 27.647 42.1959Z" fill="#FDA0C1"/>
<path d="M37.3746 32.4705C38.3656 31.4795 38.5292 30.0363 37.74 29.2472C36.9509 28.458 35.5077 28.6216 34.5167 29.6126C33.5257 30.6036 33.3621 32.0468 34.1513 32.8359C34.9405 33.6251 36.3836 33.4615 37.3746 32.4705Z" fill="#FDA0C1"/>
<path d="M31.0498 35.8721C31.5758 35.3461 31.525 34.4424 30.9364 33.8538C30.3477 33.2651 29.4441 33.2144 28.918 33.7404C28.392 34.2664 28.4428 35.1701 29.0314 35.7587C29.6201 36.3474 30.5237 36.3981 31.0498 35.8721Z" fill="#6E6E6E"/>
<path d="M24.7981 39.359C24.6406 39.359 24.4831 39.299 24.3631 39.1789L23.667 38.4829C23.4267 38.2425 23.4267 37.853 23.667 37.6128C23.9073 37.3726 24.2969 37.3726 24.537 37.6128L25.2331 38.3088C25.4733 38.5491 25.4733 38.9386 25.2331 39.1789C25.113 39.2989 24.9555 39.359 24.7981 39.359Z" fill="black"/>
<path d="M30.149 36.8516C29.5827 36.8515 29.0183 36.612 28.6007 36.1944C28.2088 35.8026 27.9766 35.2935 27.9467 34.761C27.9153 34.2024 28.1073 33.6856 28.4873 33.3056C28.838 32.9549 29.314 32.7617 29.8278 32.7617C30.3941 32.7617 30.9584 33.0013 31.3761 33.419C32.2038 34.2466 32.2546 35.5425 31.4895 36.3077C31.1387 36.6584 30.6626 36.8516 30.149 36.8516ZM29.8278 33.9923C29.6969 33.9923 29.509 34.0242 29.3574 34.1757C29.2285 34.3046 29.1638 34.4881 29.1753 34.6921C29.1881 34.9222 29.2931 35.1467 29.4708 35.3243C29.6594 35.513 29.9066 35.6212 30.149 35.6212C30.28 35.6212 30.4678 35.5893 30.6194 35.4377C30.9048 35.1523 30.8539 34.637 30.506 34.2891C30.3173 34.1005 30.0701 33.9923 29.8278 33.9923Z" fill="black"/>
<path d="M33.9256 30.2316C33.7682 30.2316 33.6107 30.1716 33.4906 30.0515L32.7945 29.3554C32.5542 29.1152 32.5542 28.7256 32.7945 28.4854C33.0347 28.2451 33.4243 28.2451 33.6645 28.4853L34.3606 29.1814C34.6009 29.4216 34.6009 29.8112 34.3606 30.0514C34.2405 30.1716 34.0831 30.2316 33.9256 30.2316Z" fill="black"/>
<path d="M53.3392 20.1756L45.8244 12.6608C45.3983 12.2346 44.8317 12 44.2292 12C43.6267 12 43.0601 12.2346 42.634 12.6608C42.2079 13.0869 41.9732 13.6534 41.9732 14.2559C41.9732 14.8585 42.2079 15.4251 42.634 15.8512L43.636 16.8532L38.7122 21.7771L33.9265 16.9914C33.047 16.1119 31.6158 16.1119 30.7362 16.9914C30.3101 17.4174 30.0754 17.984 30.0754 18.5865C30.0754 19.1891 30.3101 19.7556 30.7362 20.1818L32.0413 21.4869L18.5544 34.9739C17.8184 35.71 17.413 36.6885 17.413 37.7293C17.413 38.7702 17.8183 39.7487 18.5544 40.4847L20.4396 42.3699L16.1847 46.6249C15.9444 46.8652 15.9444 47.2547 16.1847 47.495C16.3048 47.6151 16.4623 47.6751 16.6197 47.6751C16.7771 47.6751 16.9346 47.6151 17.0547 47.495L21.3096 43.24L22.7599 44.6903L14.9809 52.4691C14.7873 52.6628 14.5298 52.7695 14.2558 52.7695C13.6903 52.7695 13.2303 52.3095 13.2303 51.7441C13.2303 51.4701 13.3369 51.2126 13.5307 51.0189L15.3146 49.2351C15.5548 48.9948 15.5548 48.6053 15.3146 48.365C15.0743 48.1248 14.6847 48.1248 14.4445 48.365L12.6608 50.1488C12.2347 50.575 12 51.1415 12 51.7441C12 52.988 13.012 54 14.2559 54C14.8585 54 15.4251 53.7654 15.8511 53.3392L23.6301 45.5603L25.5154 47.4456C26.2751 48.2052 27.2729 48.585 28.2707 48.585C29.2686 48.585 30.2665 48.2052 31.0261 47.4456L44.513 33.9587L45.8182 35.2639C46.258 35.7036 46.8356 35.9235 47.4134 35.9235C47.9911 35.9235 48.5688 35.7036 49.0086 35.2638C49.4347 34.8377 49.6694 34.2712 49.6694 33.6686C49.6694 33.0661 49.4347 32.4995 49.0086 32.0735L44.223 27.2878L49.1468 22.364L50.1489 23.3661C50.5749 23.7921 51.1415 24.0268 51.7441 24.0268C52.3466 24.0268 52.9132 23.7922 53.3392 23.3661C54.2188 22.4865 54.2188 21.0553 53.3392 20.1756ZM48.4389 33.6686C48.4389 33.9426 48.3322 34.2001 48.1385 34.3938C47.7386 34.7936 47.088 34.7937 46.6883 34.3938L42.4921 30.1976C42.2518 29.9574 41.8622 29.9574 41.6221 30.1976C41.3818 30.4379 41.3818 30.8274 41.6221 31.0677L43.643 33.0886L30.156 46.5755C29.1165 47.6151 27.425 47.6152 26.3854 46.5755L19.4245 39.6145C18.9209 39.1109 18.6435 38.4415 18.6435 37.7293C18.6435 37.0172 18.9209 36.3476 19.4245 35.8441L32.9114 22.3572L39.8818 29.3275C40.122 29.5677 40.5116 29.5677 40.7518 29.3275C40.9921 29.0872 40.9921 28.6977 40.7518 28.4574L31.6062 19.3118C31.4125 19.118 31.3058 18.8605 31.3058 18.5865C31.3058 18.3126 31.4124 18.0551 31.6062 17.8615C32.006 17.4616 32.6565 17.4616 33.0564 17.8615L48.1385 32.9436C48.3322 33.1372 48.4389 33.3948 48.4389 33.6686ZM43.3528 26.4177L39.5823 22.6472L44.506 17.7233L48.2766 21.4939L43.3528 26.4177ZM52.4691 22.4959C52.2755 22.6896 52.018 22.7962 51.7441 22.7962C51.4702 22.7962 51.2126 22.6896 51.0189 22.4959L43.5041 14.9812C43.3104 14.7874 43.2037 14.5299 43.2037 14.2559C43.2037 13.982 43.3103 13.7245 43.5041 13.5308C43.6978 13.3371 43.9553 13.2305 44.2292 13.2305C44.5031 13.2305 44.7607 13.3371 44.9543 13.5309L52.4691 21.0456C52.8689 21.4456 52.8689 22.0961 52.4691 22.4959Z" fill="black"/>
</svg>
