<svg width="65" height="65" viewBox="0 0 65 65" fill="none" xmlns="http://www.w3.org/2000/svg">
<rect width="65" height="65" rx="20" fill="#FFE1BE"/>
<path d="M13.484 17.2516V52.233H51.3956C51.3956 47.8607 51.3956 43.4884 51.3956 39.1162V35.1845C51.3956 29.2069 51.3956 23.2293 51.3956 17.2516C49.4253 17.2586 47.455 17.2656 45.4848 17.2725C44.0294 16.1403 38.7315 12.3033 31.0579 12.5475C24.274 12.7634 19.636 16.0418 18.0792 17.2516C16.5474 17.2516 15.0158 17.2516 13.484 17.2516Z" fill="#CBDCFB"/>
<path d="M46.6603 19.666V47.4689H16.28V49.3225H48.5138V19.666H46.6603Z" fill="#94B7F7"/>
<path d="M31.3643 16.239C26.8814 16.336 23.5035 17.7963 21.7672 18.6979C23.0448 21.3347 24.3223 23.9714 25.6 26.6081C27.1442 26.1206 29.466 25.5846 32.3106 25.6461C34.7357 25.6986 36.7376 26.168 38.1568 26.6192C39.4071 23.9788 40.6574 21.3383 41.9077 18.6978C40.1413 17.7816 36.3744 16.1305 31.3643 16.239Z" fill="#FFC277"/>
<path d="M31.8343 23.2454C31.6787 23.2454 31.5224 23.2471 31.3643 23.2504C28.6593 23.309 26.3574 23.864 24.575 24.4931C24.9166 25.1983 25.2583 25.9033 25.5999 26.6085C27.1441 26.1209 29.4659 25.5849 32.3105 25.6465C34.7355 25.699 36.7374 26.1683 38.1567 26.6195C38.489 25.9176 38.8214 25.2157 39.1538 24.5138C37.2737 23.8456 34.7805 23.2454 31.8343 23.2454Z" fill="#FCAD42"/>
<path d="M45.6895 16.6673C44.2423 15.5647 42.5714 14.5892 40.8439 13.8393C37.699 12.4742 34.4 11.8358 31.0387 11.9433C24.7419 12.1437 20.1446 14.9184 17.8736 16.6471H12.8796V52.8372H52V16.645L45.6895 16.6673ZM50.7912 51.6284H14.0885V17.856H18.2864L18.4501 17.7288C20.5426 16.1028 24.9654 13.346 31.0772 13.1515C34.2591 13.0506 37.3829 13.6548 40.3626 14.9482C42.065 15.6872 43.7079 16.6558 45.1137 17.7495L45.2784 17.8776L50.7912 17.8581V51.6284Z" fill="black"/>
<path d="M47.9095 48.7178H16.8845V20.2701H20.0141V19.0613H15.6757V49.9267H49.1183V32.0585H47.9095V48.7178Z" fill="black"/>
<path d="M47.9095 29.1672H49.1184V30.6128H47.9095V29.1672Z" fill="black"/>
<path d="M25.7819 27.1844C27.8965 26.5168 30.089 26.2026 32.2975 26.2502C34.2232 26.2919 36.1329 26.6098 37.9737 27.1951L38.477 27.3551L42.7035 18.4295L42.1861 18.1612C39.8552 16.952 36.0828 15.5309 31.3514 15.6345C27.9408 15.7083 24.5304 16.5821 21.4887 18.1613L20.9669 18.4321L25.2839 27.3416L25.7819 27.1844ZM24.3258 18.2481L25.2528 20.2018L26.3449 19.6836L25.4632 17.8251C26.2079 17.5907 26.9649 17.397 27.7297 17.2452L27.9796 19.3215L29.1798 19.1772L28.923 17.0432C29.6924 16.9354 30.4667 16.8697 31.2415 16.8478V19.6984H32.4503V16.8476C33.2167 16.87 33.9537 16.9331 34.6583 17.0284L34.3996 19.1772L35.5998 19.3217L35.8521 17.2254C36.6622 17.3826 37.423 17.5786 38.129 17.7981L37.2344 19.6837L38.3266 20.2018L39.2535 18.2482C39.2535 18.2482 40.4105 18.6356 41.1085 18.9733L37.8338 25.889C36.3334 25.4523 35.016 25.2215 33.4606 25.121L33.3749 25.0048L31.3551 21.3951L30.3002 21.9853L32.0085 25.0383C31.959 25.038 31.9095 25.0367 31.86 25.0367C29.8498 25.0367 27.8555 25.3199 25.9191 25.88L22.5713 18.9706C23.2378 18.6478 24.3258 18.2481 24.3258 18.2481Z" fill="black"/>
<path d="M43.6785 20.2701H47.9094V27.7217H49.1183V19.0613H43.6785V20.2701Z" fill="black"/>
<path d="M16.8568 42.2173H18.068V43.4284H16.8568V42.2173Z" fill="white"/>
<path d="M16.8568 46.2544H18.068V47.4656H16.8568V46.2544Z" fill="white"/>
<path d="M18.8755 44.2358H20.0867V45.447H18.8755V44.2358Z" fill="white"/>
<path d="M14.8381 44.2358H16.0493V45.447H14.8381V44.2358Z" fill="white"/>
<path d="M40.9445 23.9729H42.1556V25.1841H40.9445V23.9729Z" fill="white"/>
<path d="M40.9445 21.5979H42.1556V22.8091H40.9445V21.5979Z" fill="white"/>
</svg>
